<svg xmlns="http://www.w3.org/2000/svg" width="30" height="18.7" viewBox="0 0 30 18.7">
  <g id="_AWS_Cloud_128x128" transform="translate(-7.9 -28.2)">
    <path id="Path_9838" data-name="Path 9838" d="M36.255,63.3,35.4,66.887h1.711L36.283,63.3Z" transform="translate(-20.168 -25.794)" fill="#f7981f"/>
    <path id="Path_9839" data-name="Path 9839" d="M7.9,41.343v.508c0,2.511,2.725,5.049,6.064,5.049H31.836c3.339,0,6.064-2.538,6.064-5.049v-.508a6.162,6.162,0,0,0-5.37-5.53,3.908,3.908,0,0,0-3.874-3.767,3.63,3.63,0,0,0-2.191.695A7.666,7.666,0,0,0,11.8,35.867v.214A5.994,5.994,0,0,0,7.9,41.343Zm9.617,2.324-.427-1.736H15.033l-.454,1.736H13.4l2-7.053h1.443l1.843,7.053Zm6.839,0H23.047l-.908-5.316h-.027L21.2,43.667H19.948l-1.362-7.053h1.122l.935,5.476h.027l.935-5.476H22.78l.935,5.5h.027l.908-5.5h1.122ZM28.5,43.8a1.943,1.943,0,0,1-2.137-2.164v-.16h1.122v.187c0,.855.374,1.282,1.149,1.282A1,1,0,0,0,29.7,41.931a1.18,1.18,0,0,0-1.015-1.256l-.775-.267a1.894,1.894,0,0,1-1.469-1.923,1.935,1.935,0,0,1,2.191-2c1.817,0,2,1.122,2,1.843v.16H29.512v-.16a.963.963,0,1,0-1.923,0c0,.614.294.908,1.069,1.2l.748.267a1.821,1.821,0,0,1,1.443,1.87C30.821,43.187,29.912,43.8,28.5,43.8Z" transform="translate(0)" fill="#f7981f"/>
    <path id="Path_9840" data-name="Path 9840" d="M30.57,59.7,28.5,66.985h1.214l.469-1.794h2.125l.442,1.794h1.214L32.06,59.7ZM30.4,64.281l.855-3.587h.028l.828,3.587Z" transform="translate(-15.136 -23.253)" fill="#fff"/>
    <path id="Path_9841" data-name="Path 9841" d="M53.226,65.385H53.2L52.232,59.7H50.991l-.938,5.657h-.028L49.059,59.7H47.9l1.407,7.285h1.325l.938-5.491H51.6l.938,5.491h1.325L55.323,59.7H54.164Z" transform="translate(-29.425 -23.253)" fill="#fff"/>
    <path id="Path_9842" data-name="Path 9842" d="M80.118,62.722l-.773-.276c-.773-.3-1.1-.607-1.1-1.242a.995.995,0,1,1,1.987,0v.166h1.187V61.2c0-.745-.193-1.9-2.07-1.9a2.012,2.012,0,0,0-2.263,2.07A1.917,1.917,0,0,0,78.6,63.357l.8.276a1.219,1.219,0,0,1,1.049,1.3,1.014,1.014,0,0,1-1.1,1.049c-.8,0-1.187-.442-1.187-1.325V64.46H77v.166a2.007,2.007,0,0,0,2.208,2.235c1.463,0,2.4-.635,2.4-2.18A1.847,1.847,0,0,0,80.118,62.722Z" transform="translate(-50.747 -22.968)" fill="#fff"/>
  </g>
</svg>
