<svg xmlns="http://www.w3.org/2000/svg" width="31.077" height="16.699" viewBox="0 0 31.077 16.699">
  <g id="Layer_1_xA0_Image_00000078761736684119118210000009761712325107099064_" transform="translate(-0.225 -28.7)">
    <g id="Rectangle_1" transform="translate(8.443 39.218)">
      <g id="Group_18174" data-name="Group 18174" transform="translate(0 0)">
        <path id="Path_9849" data-name="Path 9849" d="M49.958,72.6H35.007a.4.4,0,0,0-.407.407v5.007a.4.4,0,0,0,.407.407H49.982a.4.4,0,0,0,.407-.407V73.007A.424.424,0,0,0,49.958,72.6Z" transform="translate(-34.6 -72.6)" fill="#fff" fill-rule="evenodd"/>
      </g>
    </g>
    <g id="Rectangle_2" transform="translate(12.373 33.444)">
      <g id="Group_18175" data-name="Group 18175" transform="translate(0 0)">
        <path id="Path_9850" data-name="Path 9850" d="M59.074,48.5H51.407a.4.4,0,0,0-.407.407V54.37a.4.4,0,0,0,.407.407h7.667a.4.4,0,0,0,.407-.407V48.907A.419.419,0,0,0,59.074,48.5Z" transform="translate(-51 -48.5)" fill="#fff" fill-rule="evenodd"/>
      </g>
    </g>
    <g id="Group_18176" data-name="Group 18176" transform="translate(0.225 28.7)">
      <path id="Path_9851" data-name="Path 9851" d="M.3,40.943v-.192a2.1,2.1,0,0,0,.048-.383A3.75,3.75,0,0,1,1.4,38.188,4.214,4.214,0,0,1,3.87,36.846a3.72,3.72,0,0,1,.743-.072c.216,0,.264-.024.264-.24a4.987,4.987,0,0,1,.288-1.318,4.466,4.466,0,0,1,2.42-2.564,4.812,4.812,0,0,1,2.084-.383,4.6,4.6,0,0,1,1.294.264c.216.072.24.048.311-.144a5.527,5.527,0,0,1,3.115-3.234,5.015,5.015,0,0,1,2.037-.431.144.144,0,0,0,.1-.024h.072c.1.048.192,0,.288.024h.288a.59.59,0,0,0,.288-.024H17.5c.288.048.575.024.886.072a5.819,5.819,0,0,1,4.193,3.019c.144.288.168.288.455.168A3.475,3.475,0,0,1,27.23,33.4a3.7,3.7,0,0,1,.5,1.677c0,.192.1.264.264.335a5.315,5.315,0,0,1,3.115,3.067,3.494,3.494,0,0,1,.24,1.1,10.371,10.371,0,0,1-.024,1.725,3.59,3.59,0,0,1-.551,1.533A5.064,5.064,0,0,1,27.565,45.3a3.588,3.588,0,0,1-1.006.1H4.4A3.806,3.806,0,0,1,1.69,44.273,4.429,4.429,0,0,1,.611,42.692,3.3,3.3,0,0,1,.42,41.614a.216.216,0,0,0-.024-.12V41.3C.324,41.255.324,41.087.3,40.943Z" transform="translate(-0.3 -28.7)" fill="#0089d6"/>
      <path id="Path_9854" data-name="Path 9854" d="M.3,79.8a.6.6,0,0,1,0,.455Z" transform="translate(-0.3 -67.557)" fill="#4db0e4"/>
      <path id="Path_9855" data-name="Path 9855" d="M69.654,28.924h-.311c-.024-.024-.024-.024,0-.024h.311s.024,0,0,.024Z" transform="translate(-52.787 -28.852)" fill="#44abe1"/>
      <path id="Path_9856" data-name="Path 9856" d="M68.564,28.9v.024c-.1,0-.192.048-.264-.024Z" transform="translate(-52.008 -28.852)" fill="#70bee8"/>
      <path id="Path_9857" data-name="Path 9857" d="M70.7,28.924V28.9h.264C70.892,28.972,70.8,28.924,70.7,28.924Z" transform="translate(-53.833 -28.852)" fill="#73c0e9"/>
      <path id="Path_9858" data-name="Path 9858" d="M65.185,51.863H63.844c-.12,0-.144-.024-.144-.144V49.779c0-.1.024-.144.12-.144l2.659-.359c.168-.024.216,0,.216.192v2.252c0,.168-.048.144-.216.144C65.941,51.871,65.617,51.863,65.185,51.863Z" transform="translate(-48.51 -44.34)" fill="#fefefe"/>
      <path id="Path_9859" data-name="Path 9859" d="M65.109,60.424h1.318c.144,0,.192.024.192.168v2.3c0,.12-.024.168-.168.144-.886-.12-1.8-.264-2.683-.383-.12-.024-.168-.048-.168-.168V60.568c0-.12.048-.168.168-.168C64.223,60.424,64.678,60.424,65.109,60.424Z" transform="translate(-48.434 -52.805)" fill="#fefefe"/>
      <path id="Path_9860" data-name="Path 9860" d="M55.748,61.526v.982c0,.072,0,.144-.12.12-.695-.1-1.39-.216-2.084-.288-.12-.024-.144-.072-.144-.168V60.568c0-.144.048-.168.192-.168h1.965c.144,0,.168.048.168.192C55.748,60.9,55.748,61.215,55.748,61.526Z" transform="translate(-40.678 -52.805)" fill="#fefefe"/>
      <path id="Path_9861" data-name="Path 9861" d="M54.65,52.993h-.982c-.12,0-.168-.024-.168-.144V51.22c0-.12.048-.144.144-.168.6-.072,1.222-.168,1.821-.24.12-.024.264-.12.335,0,.048.072.024.24.024.359v1.653c0,.12-.024.168-.168.168Z" transform="translate(-40.754 -45.47)" fill="#fefefe"/>
      <path id="Path_9862" data-name="Path 9862" d="M42.129,78.634c-.12.024-.192,0-.12-.168.383-.958.743-1.941,1.1-2.9.048-.144.12-.168.264-.168a.233.233,0,0,1,.264.168c.359.982.743,1.941,1.126,2.923.048.144.024.168-.12.168a.271.271,0,0,1-.311-.216,5.607,5.607,0,0,0-.216-.575c-.024-.1-.072-.12-.168-.12H42.8a.16.16,0,0,0-.168.12l-.216.575C42.344,78.634,42.344,78.634,42.129,78.634Z" transform="translate(-31.994 -64.211)" fill="#fefefe"/>
      <path id="Path_9863" data-name="Path 9863" d="M81.39,80.917c.024.335.024.359-.288.455a1.357,1.357,0,0,1-.695.048.919.919,0,0,1-.767-.575,1.459,1.459,0,0,1,.264-1.557.965.965,0,0,1,1.054-.216.827.827,0,0,1,.575.815c.048.455.048.455-.431.455H80.049c-.144,0-.168.048-.144.192a.764.764,0,0,0,1.078.551A3.528,3.528,0,0,0,81.39,80.917Z" transform="translate(-60.546 -66.949)" fill="#fefefe"/>
      <path id="Path_9864" data-name="Path 9864" d="M65.3,81.192a.831.831,0,0,1-.91.407.746.746,0,0,1-.623-.791c-.024-.479,0-.958,0-1.462,0-.168.144-.1.216-.1.1-.024.168,0,.144.12v1.15a.9.9,0,0,0,.024.264c.048.335.216.5.479.527a.586.586,0,0,0,.647-.407.815.815,0,0,0,.048-.335v-1.15c0-.144.072-.168.192-.168s.192,0,.192.168v1.965c0,.12-.024.192-.168.192-.12,0-.24,0-.192-.192C65.3,81.336,65.3,81.288,65.3,81.192Z" transform="translate(-48.552 -67.128)" fill="#fdfefe"/>
      <path id="Path_9865" data-name="Path 9865" d="M54.983,81.237h1.174c.1,0,.216-.024.216.144s-.1.144-.192.144H54.624c-.048,0-.12.024-.144-.048s.024-.1.072-.144c.383-.527.767-1.054,1.15-1.605.048-.048.072-.12.144-.216H54.791c-.168,0-.192-.048-.192-.192,0-.072.024-.12.12-.12H56.3c.192,0,.1.1.048.168L55.2,80.949A1.29,1.29,0,0,0,54.983,81.237Z" transform="translate(-41.494 -67.101)" fill="#fefefe"/>
      <path id="Path_9866" data-name="Path 9866" d="M74.659,79.524a.709.709,0,0,1,.719-.431c.216.024.12.168.144.264,0,.144-.1.072-.168.048a.515.515,0,0,0-.551.264,1.026,1.026,0,0,0-.144.527v1.054c0,.144-.072.168-.192.168s-.168-.024-.168-.168V79.284c0-.168.072-.168.192-.168.144,0,.192.048.168.168Z" transform="translate(-56.57 -67.017)" fill="#fefefe"/>
      <path id="Path_9867" data-name="Path 9867" d="M46.051,77.3c.192.527.359.982.527,1.438.024.072,0,.12-.072.12H45.6c-.1,0-.12-.048-.072-.12C45.692,78.258,45.859,77.8,46.051,77.3Z" transform="translate(-34.67 -65.656)" fill="#018ad6"/>
      <path id="Path_9868" data-name="Path 9868" d="M81.923,81.071H81.4c-.072,0-.1,0-.1-.1a.691.691,0,0,1,.647-.575.577.577,0,0,1,.575.551c0,.1,0,.12-.1.12A3.528,3.528,0,0,0,81.923,81.071Z" transform="translate(-61.893 -68.013)" fill="#028ad6"/>
    </g>
  </g>
</svg>
