<svg xmlns="http://www.w3.org/2000/svg" width="104.994" height="56.869" viewBox="0 0 104.994 56.869"><defs><style>.a{fill:#03bcf5;}.b{fill:#fff;}</style></defs><g transform="translate(-2 -7)"><path class="a" d="M222.894,117.711c.358-.911.677-1.787,1.042-2.642a16.227,16.227,0,0,1,3.667-5.179,19.7,19.7,0,0,1,8.341-4.855c1.324-.394,2.725-.522,4.079-.826a12.222,12.222,0,0,1,3.746-.121,30.894,30.894,0,0,1,4.831.811,19.152,19.152,0,0,1,6.2,2.837,18.058,18.058,0,0,1,6.472,7.643c.294.661.294.67.945.36a10.716,10.716,0,0,1,5.724-.966,11.264,11.264,0,0,1,8.775,5.49,10.219,10.219,0,0,1,1.588,5.2c.012.371.007.744.045,1.113a.4.4,0,0,0,.222.281,17.045,17.045,0,0,1,7.6,4.759,17.617,17.617,0,0,1,4.351,8.356,20.506,20.506,0,0,1,.279,5.425,13.539,13.539,0,0,1-.618,2.85,17.294,17.294,0,0,1-9.822,11.229,14.716,14.716,0,0,1-4.107,1.189,26.859,26.859,0,0,1-2.915.187q-36.439.014-72.878.005a11.738,11.738,0,0,1-2.026-.051,16.359,16.359,0,0,1-2.7-.722,14.486,14.486,0,0,1-8.287-7.326,16.918,16.918,0,0,1-1.4-4.475,11.119,11.119,0,0,1-.1-3.489,14.892,14.892,0,0,1,1.479-5,15.11,15.11,0,0,1,3.729-4.73,13.89,13.89,0,0,1,6.835-3.2,26.966,26.966,0,0,1,3.249-.207c.372-.014.492-.124.49-.508a14.135,14.135,0,0,1,3.226-9.113,14.775,14.775,0,0,1,7.348-5.016,15.091,15.091,0,0,1,10.381.607C222.754,117.66,222.831,117.686,222.894,117.711Z" transform="translate(-183.853 -97.002)"/><path class="b" d="M0,5.9,10.86,4.4V14.9H0ZM0,25.1l10.86,1.5V16.233H0Zm12.055,1.656L26.5,28.75V16.233H12.055Zm0-22.513V14.9H26.5V2.25L12.055,4.243Z" transform="translate(41 23.75)"/></g></svg>