<?xml version="1.0" encoding="utf-8"?>
<!-- Generator: Adobe Illustrator 26.0.1, SVG Export Plug-In . SVG Version: 6.00 Build 0)  -->
<svg version="1.1" id="Layer_1" xmlns="http://www.w3.org/2000/svg" xmlns:xlink="http://www.w3.org/1999/xlink" x="0px" y="0px"
	 viewBox="0 0 54 54" style="enable-background:new 0 0 54 54;" xml:space="preserve">
<style type="text/css">
	.st0{fill:#FF0000;}
	.st1{fill:#FFFFFF;}
</style>
<g id="fb" transform="translate(0 0)">
	<path id="Path_1480" class="st0" d="M27,0c14.9,0,27,12.1,27,27S41.9,54,27,54S0,41.9,0,27S12.1,0,27,0z"/>
</g>
<path class="st1" d="M35.7,25c0.9-0.8,1.9-1,3-0.7c1.2,0.4,1.9,1.2,2.1,2.5c0.2,1.3-0.3,2.2-1.4,2.9c-0.3,0.2-0.3,0.3-0.3,0.6
	c0.2,2.3-0.8,4.1-2.5,5.6c-1.8,1.6-4,2.5-6.4,3c-3.2,0.6-6.3,0.4-9.3-0.9c-1.8-0.7-3.4-1.8-4.6-3.4c-1-1.3-1.5-2.8-1.4-4.5
	c0-0.1-0.1-0.3-0.2-0.4c-1.6-1-2-2.9-1-4.4c1-1.5,3-1.7,4.5-0.6c0,0,0.1,0,0,0c1-0.5,1.9-1,2.8-1.4c1.6-0.7,3.3-1,5-1.1
	c0.3,0,0.5-0.1,0.6-0.5c0.4-2.2,0.9-4.3,1.3-6.5c0.1-0.7,0.3-0.8,1-0.7c1.5,0.3,3,0.6,4.4,0.9c0.2,0,0.3,0,0.5-0.2
	c0.6-0.9,1.6-1.2,2.6-0.8c0.9,0.4,1.5,1.3,1.3,2.3c-0.1,1-0.9,1.7-1.9,1.8c-1,0.1-2-0.6-2.3-1.6c-0.1-0.4-0.2-0.5-0.6-0.5
	c-1.2-0.2-2.4-0.5-3.6-0.8c-0.1,0-0.2,0-0.4,0c-0.5,2.2-0.9,4.3-1.4,6.4C30.6,22.6,33.3,23.3,35.7,25z M22.2,31.5
	c1.2,0,2.2-1,2.2-2.1c0-1.2-1-2.2-2.2-2.2c-1.2,0-2.1,1-2.1,2.1C20.1,30.6,21,31.5,22.2,31.5z M33.9,29.4c0-1.2-1-2.2-2.1-2.2
	c-1.2,0-2.2,1-2.2,2.2c0,1.2,1,2.1,2.1,2.1C32.9,31.5,33.9,30.6,33.9,29.4z M27.2,36.7c0.4,0,1-0.1,1.6-0.2c1.2-0.2,2.3-0.5,3.2-1.3
	c0.3-0.3,0.4-0.6,0.1-0.9c-0.2-0.2-0.5-0.2-0.9,0c-0.4,0.3-0.9,0.6-1.3,0.7c-1.1,0.4-2.3,0.5-3.5,0.5c-1.4-0.1-2.8-0.3-3.9-1.3
	c-0.2-0.2-0.5-0.2-0.8,0.1c-0.2,0.2-0.2,0.5,0,0.7c0.3,0.3,0.7,0.5,1,0.7C24.2,36.5,25.6,36.6,27.2,36.7z"/>
</svg>
