<svg id="Layer_1" data-name="Layer 1" xmlns="http://www.w3.org/2000/svg" viewBox="0 0 54 54"><defs><style>.cls-1{fill:red;}.cls-2{fill:#fff;}</style></defs><g id="fb"><path id="Path_1480" data-name="Path 1480" class="cls-1" d="M27,0A27,27,0,1,1,0,27,27,27,0,0,1,27,0Z"/></g><path class="cls-2" d="M32.91,36.38a17,17,0,0,0,2.67-1.31A.6.6,0,0,0,35.5,35L35,34.6a.15.15,0,0,0-.18,0,19.13,19.13,0,0,1-2.21.87,17.6,17.6,0,0,1-2.69.66l-1.3.16c-.23,0-.46,0-.69,0a16.08,16.08,0,0,1-1.7,0c-.44,0-.88-.06-1.32-.11a16,16,0,0,1-1.84-.3,19.73,19.73,0,0,1-3.6-1.19l-.37-.16a.11.11,0,0,0-.12,0l-.55.44,0,0a6.72,6.72,0,0,0,1.28.73c.44.21.89.4,1.35.6a1,1,0,0,1,0,.1,18.17,18.17,0,0,1-1,1.72l-.58.86c-.08.11-.08.11-.19.07a24,24,0,0,1-2.45-.91c-.61-.26-1.2-.54-1.79-.85a21.37,21.37,0,0,1-2-1.15c-.51-.34-1-.7-1.52-1a.25.25,0,0,1-.12-.19c0-.12,0-.25,0-.37,0-.34,0-.67-.05-1-.05-.81,0-1.62,0-2.43,0-.51.06-1,.11-1.52s.1-.91.16-1.36c.1-.7.24-1.39.39-2.08a26.79,26.79,0,0,1,.76-2.61,24.13,24.13,0,0,1,1-2.59c.14-.31.28-.61.43-.9.46-.91.95-1.78,1.49-2.64.12-.17.23-.35.34-.52a.28.28,0,0,1,.13-.11,25.17,25.17,0,0,1,2.35-1,24.63,24.63,0,0,1,2.54-.74l1.38-.28c.11,0,.12,0,.18.08.27.5.51,1,.74,1.51,0,.11,0,.11.15.09l1.54-.17.73-.05.71,0,.65,0c.3,0,.59,0,.89,0s.7,0,1,.07l1.41.16c.1,0,.11,0,.15-.08.22-.51.45-1,.71-1.49.07-.13.07-.13.22-.11a24.17,24.17,0,0,1,4,1.07,22.9,22.9,0,0,1,2.24.92.29.29,0,0,1,.11.11c.23.35.46.71.68,1.07q.51.84,1,1.71c.39.73.74,1.48,1.06,2.24s.52,1.34.75,2a26.4,26.4,0,0,1,.83,3.29c.11.6.2,1.2.28,1.81,0,.37.07.74.1,1.12s0,.54,0,.81,0,.54,0,.81a5.15,5.15,0,0,1,0,.56c0,.34,0,.69,0,1s0,.55,0,.83,0,.5-.06.75a.18.18,0,0,1-.09.13c-.27.2-.54.4-.82.59a26.53,26.53,0,0,1-2.33,1.44c-.63.35-1.28.66-2,1-.84.37-1.71.69-2.59,1-.19.06-.17.06-.27-.09a17.81,17.81,0,0,1-1.34-2.17Zm-8.29-8.19c0-.21,0-.42-.07-.63a3.16,3.16,0,0,0-1.06-1.92A2.55,2.55,0,0,0,21.74,25a2.42,2.42,0,0,0-1.23.34,3,3,0,0,0-1.32,1.58,3.37,3.37,0,0,0-.22,1.6,3.29,3.29,0,0,0,.2.93A3.07,3.07,0,0,0,20.4,31a2.42,2.42,0,0,0,2,.33,2.71,2.71,0,0,0,1.67-1.27A3.7,3.7,0,0,0,24.62,28.19ZM32.2,25a2.45,2.45,0,0,0-1.29.35,3,3,0,0,0-1.26,1.48,3.54,3.54,0,0,0-.21,2,3.18,3.18,0,0,0,1.25,2.08,2.47,2.47,0,0,0,1.95.47A2.74,2.74,0,0,0,34.57,30,3.53,3.53,0,0,0,35,27.71a3.22,3.22,0,0,0-1-2A2.58,2.58,0,0,0,32.2,25Z"/></svg>