<?xml version="1.0" encoding="utf-8"?>
<!-- Generator: Adobe Illustrator 26.0.1, SVG Export Plug-In . SVG Version: 6.00 Build 0)  -->
<svg version="1.1" id="Layer_1" xmlns="http://www.w3.org/2000/svg" xmlns:xlink="http://www.w3.org/1999/xlink" x="0px" y="0px"
	 viewBox="0 0 54 54" style="enable-background:new 0 0 54 54;" xml:space="preserve">
<style type="text/css">
	.st0{fill:#FF0000;}
	.st1{fill:#FFFFFF;}
</style>
<g id="fb_00000057134347499433936490000004959846061581898407_" transform="translate(0 0)">
	<path id="Path_1480_00000162351252306122009400000001373038686787654020_" class="st0" d="M27,0c14.9,0,27,12.1,27,27
		S41.9,54,27,54S0,41.9,0,27S12.1,0,27,0z"/>
</g>
<path class="st1" d="M27.6,14.9c1.4,0,2.8,0,4.1,0c0.4,3.5,2.3,5.5,5.8,5.9c0,1.3,0,2.7,0,4.1c-2.1,0-4-0.6-5.8-1.8
	c0,0.2,0,0.3,0,0.4c0,2.6,0,5.3,0,7.9c0,3.3-1.9,6-4.8,7.3c-4.5,1.8-9.7-1.1-10.4-5.9c-0.7-4.4,2.4-8.4,6.8-8.9c0.6-0.1,1.2,0,1.8,0
	c0,1.5,0,2.8,0,4.2c-0.5,0-1-0.1-1.5,0c-1.8,0.2-3.1,1.9-3,3.8c0.1,1.8,1.7,3.2,3.5,3.2c2,0,3.5-1.6,3.5-3.5c0-5.4,0-10.7,0-16.1
	C27.6,15.2,27.6,15,27.6,14.9z"/>
</svg>
