<?xml version="1.0" encoding="utf-8"?>
<!-- Generator: Adobe Illustrator 26.0.1, SVG Export Plug-In . SVG Version: 6.00 Build 0)  -->
<svg version="1.1" xmlns="http://www.w3.org/2000/svg" xmlns:xlink="http://www.w3.org/1999/xlink" x="0px" y="0px"
	 viewBox="0 0 4000 4000" style="enable-background:new 0 0 4000 4000;" xml:space="preserve" >
<style type="text/css">
	.st0{display:none;}
	.st1{display:inline;fill-rule:evenodd;clip-rule:evenodd;}
	.st2{fill-rule:evenodd;clip-rule:evenodd;}
	g{
		fill: #ffffff;
	}
</style>
<g id="Layer_2" class="st0">
	<polygon class="st1" points="0,0 4000,0 4000,4000 0,4000 0,0 	"/>
</g>
<g id="Layer_1">
	<g>
		<path class="st2" d="M615.4,3692.3V307.7h2769.2v3384.6H615.4L615.4,3692.3z M3692.3,4000V0H307.7v4000H3692.3L3692.3,4000z"/>
		<path d="M2153.7,3385.1v-307.8h923.4v307.8H2153.7L2153.7,3385.1z M2769.3,2769.5v-307.8h307.8v307.8H2769.3L2769.3,2769.5z
			 M2153.7,2769.5v-1539h923.4v923.4h-307.8v-615.6h-307.8v1231.2H2153.7L2153.7,2769.5z M2153.7,922.7V614.9h923.4v307.8H2153.7
			L2153.7,922.7z"/>
		<path d="M922.9,3385.1v-307.8h923.4v307.8H922.9L922.9,3385.1z M1538.5,922.7V614.9h307.8v307.8H1538.5L1538.5,922.7z
			 M922.9,614.9h307.8v1231.2l307.8-615.6h307.8l-365.3,769.1l365.3,769.9h-307.8l-307.8-615.6v615.6H922.9V614.9L922.9,614.9z"/>
	</g>
</g>
</svg>
