<svg xmlns="http://www.w3.org/2000/svg" width="54" height="54" viewBox="0 0 54 54">
  <g id="lin" transform="translate(0 0)">
    <g id="Group_1766" data-name="Group 1766" transform="translate(0 0)">
      <circle id="Ellipse_49" data-name="Ellipse 49" cx="27" cy="27" r="27" fill="red"/>
    </g>
    <g id="linkedin" transform="translate(15 13)">
      <path id="Path_433" data-name="Path 433" d="M24.274,24.3h.006V15.335c0-4.384-.944-7.761-6.069-7.761a5.32,5.32,0,0,0-4.792,2.634h-.071V7.983H8.489V24.3h5.06V16.218c0-2.127.4-4.183,3.037-4.183,2.6,0,2.634,2.427,2.634,4.32V24.3Z" transform="translate(0.153 0.137)" fill="#fff"/>
      <path id="Path_434" data-name="Path 434" d="M.4,7.977H5.462V24.289H.4Z" transform="translate(0.007 0.144)" fill="#fff"/>
      <path id="Path_435" data-name="Path 435" d="M2.934,0A2.948,2.948,0,1,0,5.868,2.934,2.935,2.935,0,0,0,2.934,0Z" transform="translate(0)" fill="#fff"/>
    </g>
  </g>
</svg>
