<svg xmlns="http://www.w3.org/2000/svg" width="548.872" height="640.681" viewBox="0 0 548.872 640.681">
  <g id="Group_5" data-name="Group 5" transform="translate(-267.558 -162.895)">
    <g id="Layer_1" data-name="Layer 1">
      <g id="Group_3" data-name="Group 3">
        <g id="Group_1" data-name="Group 1">
          <path id="Path_1" data-name="Path 1" d="M582.683,403.993l106.26-109.685H656.728L513.257,442.04v33.9l52.335-53.679,97.953,112.323h31.592Zm-200.494,80.06,53.613,52.32-90.235,78.7V222.785L471.179,344.808h33.935l-53.647-52.319,112.355-98V162.9L433.2,275.383,323.446,169.122V665.965L454.073,553.479,563.822,659.738V627.557L416.09,484.053Z" fill="#fff"/>
        </g>
      </g>
    </g>
    <g id="Layer_6" data-name="Layer 6">
      <g id="Group_4" data-name="Group 4">
        <path id="Path_7" data-name="Path 7" d="M285.077,763.5v40.078H267.558v-84h17.519V752.1l30-32.519h22.679l-36.119,37.8,37.8,46.2h-23.4Z" fill="#fff"/>
        <path id="Path_8" data-name="Path 8" d="M407.837,719.58h17.519v84H407.837Z" fill="#fff"/>
        <path id="Path_9" data-name="Path 9" d="M488.474,763.5V752.1l30-32.519h22.68l-36.119,37.8,37.8,46.2h-23.4Z" fill="#fff"/>
        <path id="Path_10" data-name="Path 10" d="M611.233,719.58h33.839c17.879,0,26.759,10.679,26.759,25.2,0,12.12-6,19.679-18.239,22.439l25.558,36.358H657.911l-23.519-34.558h-5.639v34.558h-17.52Zm31.319,35.158c7.2,0,11.879-2.519,11.879-9.959,0-7.2-4.679-9.72-11.879-9.72h-13.8v19.679Z" fill="#fff"/>
        <path id="Path_11" data-name="Path 11" d="M748.513,719.58h33.839c17.879,0,26.759,10.679,26.759,25.2,0,12.12-6,19.679-18.239,22.439l25.558,36.358H795.191l-23.518-34.558h-5.64v34.558h-17.52Zm31.319,35.158c7.2,0,11.88-2.519,11.88-9.959,0-7.2-4.68-9.72-11.88-9.72h-13.8v19.679Z" fill="#fff"/>
      </g>
    </g>
  </g>
</svg>
