<?xml version="1.0" encoding="UTF-8"?>
<svg width="165px" height="28px" viewBox="0 0 165 28" version="1.1" xmlns="http://www.w3.org/2000/svg" xmlns:xlink="http://www.w3.org/1999/xlink">
    <!-- Generator: Sketch 53.2 (72643) - https://sketchapp.com -->
    <title>Asset 1</title>
    <desc>Created with Sketch.</desc>
    <g id="Template" stroke="none" stroke-width="1" fill="none" fill-rule="evenodd">
        <g id="Key-Components" transform="translate(-81.000000, -377.000000)" fill-rule="nonzero">
            <g id="Asset-1" transform="translate(81.000000, 377.000000)">
                <rect id="Rectangle" fill="#00FF00" x="26.5178571" y="19.6844444" width="7.54722222" height="2.33777778" rx="1.14801587"></rect>
                <rect id="Rectangle" fill="#00FF00" x="37.3519841" y="19.6844444" width="3.26071429" height="2.33777778" rx="1.14801587"></rect>
                <path d="M22.0829365,22.0222222 L7.59087302,22.0222222 C4.04158824,22.0175384 0.969873483,19.5079122 0.196490173,15.9809266 C-0.576893138,12.453941 1.15478849,8.85239629 4.36507937,7.31111111 C4.58971232,4.44594564 6.93302226,2.23390246 9.75595238,2.22222222 C10.5079202,2.22112864 11.2516457,2.38166519 11.9384921,2.69333333 C13.9219875,0.45267986 16.9642645,-0.479719769 19.8329461,0.273834383 C22.7016276,1.02738853 24.9211652,3.34197792 25.5924603,6.28 C28.06446,6.86745791 29.7124254,9.24693899 29.4258611,11.8150097 C29.1392967,14.3830805 27.0090625,16.3254918 24.4706349,16.3333333 L14.5662698,16.3333333 C14.1561233,16.3333334 13.7771322,16.1105444 13.5720589,15.7488889 C13.3669856,15.3872334 13.3669856,14.9416555 13.5720589,14.58 C13.7771322,14.2183445 14.1561233,13.9955555 14.5662698,13.9955556 L24.475,13.9955556 C25.9314946,13.9684528 27.1056077,12.7723709 27.1314699,11.2893807 C27.157332,9.80639056 26.0256632,8.5686222 24.5710317,8.48888889 L23.5714286,8.44444444 L23.4579365,7.44444444 C23.1660425,5.07480663 21.4723487,3.1322196 19.1960308,2.55623928 C16.919713,1.98025895 14.529934,2.88959837 13.1825397,4.84444444 L12.5190476,5.82222222 L11.5674603,5.13333333 C10.6132942,4.43980472 9.35818463,4.34828642 8.31669393,4.89629855 C7.27520323,5.44431068 6.62250573,6.53967994 6.62619048,7.73333333 C6.62619048,7.82222222 6.62619048,7.91111111 6.62619048,7.99555556 L6.70039683,8.88444444 L5.85793651,9.18222222 C3.40729688,10.0340528 1.92239864,12.5668294 2.34898946,15.1673994 C2.77558027,17.7679695 4.98827213,19.6719463 7.57777778,19.6666667 L22.0698413,19.6666667 C22.7038729,19.6666667 23.2178571,20.189996 23.2178571,20.8355556 C23.2178571,21.4811151 22.7038729,22.0044444 22.0698413,22.0044444 L22.0829365,22.0222222 Z" id="Path" fill="#00FF00"></path>
                <path d="M91.2301587,12.2311111 C91.2301587,11.0355556 92.3781746,10.4533333 93.552381,10.4533333 C94.7355726,10.3810013 95.8412012,11.0550282 96.3373016,12.1511111 L98.2404762,11.0666667 C97.406746,9.34222222 95.6869048,8.30666667 93.552381,8.30666667 C90.9333333,8.30666667 88.934127,9.92444444 88.934127,12.2622222 C88.934127,17.0666667 96.2369048,15.4444444 96.2369048,18.2844444 C96.2369048,19.5866667 95.0365079,20.0888889 93.6527778,20.0888889 C92.0376984,20.0888889 90.8373016,19.2933333 90.422619,18.0222222 L88.4670635,19.16 C89.2222222,20.9911111 91.0468254,22.2711111 93.6527778,22.2711111 C96.4420635,22.2711111 98.5285714,20.76 98.5285714,18.2711111 C98.5373016,13.3955556 91.2301587,15.0666667 91.2301587,12.2311111 Z" id="Path" fill="#00FF00"></path>
                <path d="M63.0404762,10.9288889 C61.9728688,9.23762294 60.1121322,8.24057061 58.1384921,8.30222222 C56.3576611,8.31385729 54.6552515,9.04965743 53.4100014,10.3459278 C52.1647513,11.6421983 51.4799464,13.3914214 51.5079365,15.2044444 C51.4752093,17.0239983 52.1601688,18.780983 53.4095863,20.082352 C54.6590038,21.3837211 56.3686082,22.1208678 58.1559524,22.1288889 C60.1348969,22.1713215 61.9925535,21.1607611 63.0579365,19.4622222 L63.0579365,21.3466667 C63.0579365,23.84 61.4166667,25.4044444 58.6928571,25.4044444 C56.1392857,25.4044444 55.0436508,24.4266667 54.4456349,23.1822222 L52.4638889,24.3244444 C53.5333333,26.4222222 55.7202381,27.56 58.6404762,27.56 C62.0321429,27.56 65.2884921,25.4933333 65.2884921,21.3377778 L65.2884921,8.64444444 L63.0492063,8.64444444 L63.0404762,10.9288889 Z M58.4003968,19.9244444 C55.8449841,19.9244444 53.7734127,17.8152082 53.7734127,15.2133333 C53.7734127,12.6114585 55.8449841,10.5022222 58.4003968,10.5022222 C59.6347245,10.4767364 60.8262005,10.9632253 61.7012369,11.8499808 C62.5762733,12.7367362 63.0596871,13.9475683 63.0404762,15.2044444 C63.0644879,16.4643773 62.5831936,17.679867 61.7076192,18.5705223 C60.8320447,19.4611776 59.6378077,19.9500785 58.4003968,19.9244444 Z" id="Shape" fill="#c3c3c3"></path>
                <path d="M141.690476,10.9288889 C140.617004,9.23271199 138.747376,8.23533643 136.766667,8.30222222 C133.143651,8.30222222 130.171032,11.3555556 130.171032,15.28 C130.171032,19.2044444 133.134921,22.2622222 136.766667,22.2622222 C138.747376,22.329108 140.617004,21.3317325 141.690476,19.6355556 L141.690476,21.9155556 L143.960317,21.9155556 L143.960317,8.64444444 L141.690476,8.64444444 L141.690476,10.9288889 Z M137.063492,20.0311111 C135.823277,20.0520927 134.628345,19.5569422 133.754975,18.6601424 C132.881605,17.7633427 132.405416,16.542542 132.436508,15.28 C132.436508,13.596882 133.318406,12.0416169 134.75,11.2000579 C136.181594,10.3584989 137.94539,10.3584989 139.376984,11.2000579 C140.808578,12.0416169 141.690476,13.596882 141.690476,15.28 C141.719078,16.5418101 141.242084,17.7611321 140.369262,18.6573689 C139.49644,19.5536058 138.302967,20.0495641 137.063492,20.0311111 Z" id="Shape" fill="#00FF00"></path>
                <rect id="Rectangle" fill="#c3c3c3" x="43.5853175" y="2.54222222" width="2.26547619" height="19.3733333"></rect>
                <rect id="Rectangle" fill="#c3c3c3" x="47.7888889" y="8.64444444" width="2.26547619" height="13.2711111"></rect>
                <path d="M111.479762,10.8755556 L111.479762,8.65333333 L109.209921,8.65333333 L109.209921,21.9155556 L111.479762,21.9155556 L111.479762,14.8844444 C111.479762,11.7733333 113.59246,10.7422222 115.543651,10.8222222 L115.543651,8.40888889 C113.902381,8.40888889 112.313492,9.01777778 111.479762,10.8755556 Z" id="Path" fill="#00FF00"></path>
                <path d="M122.40119,8.30222222 C118.337302,8.30222222 115.574206,11.3511111 115.574206,15.28 C115.574206,19.2088889 118.363492,22.2622222 122.558333,22.2622222 C125.177381,22.2622222 127.150397,21.0666667 128.294048,19.2622222 L126.364683,18.1466667 C125.537973,19.4207464 124.113138,20.1570945 122.615079,20.0844444 C120.188095,20.0844444 118.337302,18.7511111 117.896429,16.3422222 L128.809127,16.3422222 C128.859883,15.9994826 128.884692,15.6532778 128.883333,15.3066667 C128.892063,11.5911111 126.338492,8.30222222 122.40119,8.30222222 Z M117.896429,14.3288889 C118.25873,12.0177778 119.952381,10.4755556 122.40119,10.4755556 C124.356746,10.4755556 126.20754,11.6977778 126.600397,14.3288889 L117.896429,14.3288889 Z" id="Shape" fill="#00FF00"></path>
                <path d="M159.936508,8.30222222 C158.269483,8.24375668 156.701036,9.10509791 155.833333,10.5555556 C155.099723,9.10481069 153.601557,8.22396748 152.000794,8.30222222 C150.426302,8.24404835 148.943203,9.05428531 148.120238,10.4222222 L148.120238,8.64444444 L145.850397,8.64444444 L145.850397,21.9155556 L148.120238,21.9155556 L148.120238,14.5377778 C148.120238,11.6711111 149.709127,10.5022222 151.455159,10.5022222 C153.20119,10.5022222 154.218254,11.6444444 154.218254,13.7377778 L154.218254,21.9155556 L156.48373,21.9155556 L156.48373,14.5377778 C156.48373,11.6711111 157.86746,10.5022222 159.692063,10.5022222 C161.411905,10.5022222 162.559921,11.6444444 162.559921,13.7377778 L162.559921,21.9155556 L164.825425,21.9155556 L164.825397,13.6622222 C164.834127,10.3422222 162.81746,8.30222222 159.936508,8.30222222 Z" id="Path" fill="#00FF00"></path>
                <path d="M107.354762,10.8755556 L107.354762,8.65333333 L103.888889,8.65333333 L103.888889,4.92888889 L101.619048,4.92888889 L101.619048,8.64444444 L98.6857143,8.64444444 C99.1404851,9.12825423 99.5202358,9.67976258 99.8119048,10.28 L100.1,10.8755556 L101.619048,10.8755556 L101.619048,18.0666667 C101.619048,19.12 101.76746,20.7555556 103.190476,21.5377778 C104.775,22.4266667 107.354762,21.9155556 107.354762,21.9155556 L107.354762,19.8444444 L106.577778,19.88 C104.78373,19.9555556 103.888889,19.8444444 103.888889,18.0666667 L103.888889,10.8755556 L107.354762,10.8755556 Z" id="Path" fill="#00FF00"></path>
                <path d="M87.0527778,20.2044444 C87.0003968,20.0977778 86.9392857,19.9955556 86.8912698,19.88 C85.0972222,19.9511111 84.206746,19.8444444 84.206746,18.0666667 L84.206746,10.8755556 L87.3801587,10.8755556 C87.5949763,10.0503752 87.998879,9.28880793 88.5587302,8.65333333 L84.1936508,8.65333333 L84.1936508,4.92888889 L81.9281746,4.92888889 L81.9281746,8.64444444 L78.6238095,8.64444444 C79.1994297,9.2904222 79.6444112,10.0455425 79.9333333,10.8666667 L81.9369048,10.8666667 L81.9369048,18.0666667 C81.9369048,21.3866667 83.7615079,22.4488889 87.672619,21.9155556 L88.1702381,21.8355556 C87.788675,21.4363626 87.4599676,20.9881252 87.1924603,20.5022222 C87.1444444,20.3955556 87.1007937,20.3022222 87.0527778,20.2044444 Z" id="Path" fill="#c3c3c3"></path>
                <path d="M73.6039683,8.30222222 C71.7793651,8.30222222 70.343254,8.99111111 69.3829365,10.56 L69.3829365,2.56 L67.1130952,2.56 L67.1130952,21.9155556 L69.4047619,21.9155556 L69.4047619,14.88 C69.4047619,11.7688889 71.0984127,10.5022222 73.1849206,10.5022222 C75.1884921,10.5022222 76.4150794,11.7244444 76.4150794,13.9022222 L76.4150794,21.9022222 L78.6805556,21.9022222 L78.6805556,13.7777778 C78.6587302,10.3733333 76.6551587,8.30222222 73.6039683,8.30222222 Z" id="Path" fill="#c3c3c3"></path>
            </g>
        </g>
    </g>
</svg>