<svg xmlns="http://www.w3.org/2000/svg" width="181.254" height="30.453" viewBox="0 0 181.254 30.453">
  <g id="marketstack_logo_white" transform="translate(2455 -885.5)">
    <g id="Group_5939" data-name="Group 5939" transform="translate(-2413.957 887.843)">
      <path id="Path_3456" data-name="Path 3456" d="M-2363.043,917.616v-9.321c0-.732-.292-1.074-1.073-1.074a8.872,8.872,0,0,0-3.465,1.122v9.273h-3.319V904.293h2.538l.342,1.122A13.129,13.129,0,0,1-2362.7,904a2.61,2.61,0,0,1,2.538,1.415A12.948,12.948,0,0,1-2354.8,904c2.2,0,3.026,1.562,3.026,3.953v9.663h-3.319v-9.321c0-.732-.293-1.074-1.074-1.074a8.944,8.944,0,0,0-3.465,1.122v9.273h-3.416Z" transform="translate(2370.9 -897.339)" fill="#fff"/>
      <path id="Path_3457" data-name="Path 3457" d="M-2314.9,917.565h-2.733l-.244-.927a7.439,7.439,0,0,1-3.953,1.171c-2.44,0-3.465-1.659-3.465-3.953,0-2.733,1.171-3.758,3.9-3.758h3.221v-1.415c0-1.464-.391-2-2.538-2a18.756,18.756,0,0,0-3.709.39l-.39-2.538a17.072,17.072,0,0,1,4.587-.634c4.2,0,5.417,1.464,5.417,4.831v8.833Zm-3.368-5.027h-2.44c-1.074,0-1.416.293-1.416,1.318,0,.927.293,1.318,1.318,1.318a5.552,5.552,0,0,0,2.538-.683Z" transform="translate(2347.554 -898.288)" fill="#fff"/>
      <path id="Path_3458" data-name="Path 3458" d="M-2289.867,907.175a24.728,24.728,0,0,0-3.514,1.952v8.589h-3.319V904.393h2.831l.2,1.464a15.723,15.723,0,0,1,3.514-1.757Z" transform="translate(2332.912 -898.39)" fill="#fff"/>
      <path id="Path_3459" data-name="Path 3459" d="M-2278.1,911.677V892.888l3.319-.488v19.228h-3.319Zm11.371-13.323-3.9,6.588,4.1,6.735h-3.66l-4-6.735,3.807-6.588Z" transform="translate(2323.389 -892.4)" fill="#fff"/>
      <path id="Path_3460" data-name="Path 3460" d="M-2245.395,915.227a14.235,14.235,0,0,0,4.1-.635l.537,2.538a14.06,14.06,0,0,1-4.88.83c-4.2,0-5.661-1.952-5.661-5.124v-3.514c0-2.831,1.269-5.222,5.515-5.222,4.295,0,5.222,2.489,5.222,5.368V912.3h-7.418v.683C-2247.981,914.593-2247.4,915.227-2245.395,915.227Zm-2.587-5.612h4.246v-.635c0-1.269-.391-2.147-2.05-2.147s-2.2.878-2.2,2.147Z" transform="translate(2309.669 -898.39)" fill="#fff"/>
      <path id="Path_3461" data-name="Path 3461" d="M-2217.611,913.737a9.727,9.727,0,0,1-2.928.537q-3.66,0-3.66-3.514v-7.418h-2v-2.635h2v-3.319l3.319-.488v3.758h3.416l-.2,2.635h-3.221v6.979c0,.732.342,1.171,1.22,1.171a5.412,5.412,0,0,0,1.659-.293Z" transform="translate(2296.818 -894.704)" fill="#fff"/>
      <path id="Path_3462" data-name="Path 3462" d="M-2199.613,917.96a15.579,15.579,0,0,1-4.587-.781l.488-2.538a14.294,14.294,0,0,0,3.953.586c1.464,0,1.708-.342,1.708-1.318,0-.83-.146-1.22-2.343-1.757-3.27-.781-3.66-1.61-3.66-4.2,0-2.684,1.171-3.855,4.978-3.855a15.769,15.769,0,0,1,4,.488l-.342,2.635a23.305,23.305,0,0,0-3.66-.39c-1.464,0-1.708.342-1.708,1.171,0,1.074.1,1.171,1.9,1.611,3.709.976,4.1,1.464,4.1,4.2C-2194.781,916.4-2195.562,917.96-2199.613,917.96Z" transform="translate(2285.555 -898.39)" fill="#fff"/>
      <path id="Path_3463" data-name="Path 3463" d="M-2172.611,913.737a9.727,9.727,0,0,1-2.928.537q-3.66,0-3.66-3.514v-7.418h-2v-2.635h2v-3.319l3.319-.488v3.758h3.416l-.2,2.635h-3.221v6.979c0,.732.342,1.171,1.22,1.171a5.413,5.413,0,0,0,1.659-.293Z" transform="translate(2273.78 -894.704)" fill="#fff"/>
      <path id="Path_3464" data-name="Path 3464" d="M-2148.905,917.565h-2.733l-.244-.927a7.44,7.44,0,0,1-3.953,1.171c-2.44,0-3.465-1.659-3.465-3.953,0-2.733,1.171-3.758,3.9-3.758h3.221v-1.415c0-1.464-.39-2-2.538-2a18.754,18.754,0,0,0-3.709.39l-.39-2.538a17.077,17.077,0,0,1,4.587-.634c4.2,0,5.417,1.464,5.417,4.831v8.833Zm-3.367-5.027h-2.44c-1.074,0-1.415.293-1.415,1.318,0,.927.293,1.318,1.318,1.318a5.552,5.552,0,0,0,2.538-.683Z" transform="translate(2262.568 -898.288)" fill="#fff"/>
      <path id="Path_3465" data-name="Path 3465" d="M-2132,912.785v-3.66c0-3.563,1.562-5.124,5.759-5.124a11.074,11.074,0,0,1,3.27.488l-.39,2.733a12.3,12.3,0,0,0-2.782-.342c-1.9,0-2.489.586-2.489,2.2v3.709c0,1.659.586,2.2,2.489,2.2a11.687,11.687,0,0,0,2.782-.342l.39,2.733a11.229,11.229,0,0,1-3.27.488C-2130.438,917.909-2132,916.4-2132,912.785Z" transform="translate(2248.591 -898.339)" fill="#fff"/>
      <path id="Path_3466" data-name="Path 3466" d="M-2107.2,911.677V892.888l3.319-.488v19.228h-3.319Zm11.322-13.323-3.9,6.588,4.1,6.735h-3.66l-4-6.735,3.807-6.588Z" transform="translate(2235.894 -892.4)" fill="#fff"/>
    </g>
    <path id="Path_3467" data-name="Path 3467" d="M-2425.718,913.953c0-.2.049-.342.049-.439V883.988c0-.488,0-.488-.488-.488h-10.834c-.342,0-.439.1-.439.439v5.076c0,.342.146.439.439.439h4.929c.488,0,.488,0,.488.488v21.034c0,.244,0,.439.293.586,1.464.634,2.928,1.318,4.343,1.952A7.45,7.45,0,0,1-2425.718,913.953Zm-8.736-10.883h0v-10.4c0-.439,0-.439-.439-.439h-10.932c-.342,0-.439.1-.439.439v5.076c0,.342.146.439.439.439h4.832c.634,0,.634-.1.634.635v12.1a.552.552,0,0,0,.439.634c.732.293,1.415.634,2.147.976,1.025.439,2,.878,3.026,1.366.244.1.342.049.342-.2v-.293C-2434.454,909.9-2434.454,906.486-2434.454,903.07Zm-8.784,4.441h0V901.46c0-.293-.1-.439-.439-.439h-10.883c-.439,0-.439,0-.439.439v7.955c0,.342.1.488.39.586,1.074.342,2.1.732,3.173,1.122,2.586.879,5.173,1.806,7.759,2.684.439.146.439.146.439-.342Z" transform="translate(0 2)" fill="#fff"/>
  </g>
</svg>
