<?xml version="1.0" encoding="utf-8"?>
<!-- Generator: Adobe Illustrator 26.4.1, SVG Export Plug-In . SVG Version: 6.00 Build 0)  -->
<svg version="1.1" id="Layer_1" xmlns="http://www.w3.org/2000/svg" xmlns:xlink="http://www.w3.org/1999/xlink" x="0px" y="0px"
	 viewBox="0 0 512 512" style="enable-background:new 0 0 512 512;" xml:space="preserve">
<style type="text/css">
	.st0{clip-path:url(#SVGID_00000099647442964264246290000006155028210062076544_);}
	.st1{fill:#FE0101;}
	.st2{fill:#FEFDFD;}
</style>
<g>
	<defs>
		<rect id="SVGID_1_" width="512" height="512"/>
	</defs>
	<clipPath id="SVGID_00000083086511906856425650000015080983274877274805_">
		<use xlink:href="#SVGID_1_"  style="overflow:visible;"/>
	</clipPath>
	<g id="Custom_Size_1" style="clip-path:url(#SVGID_00000083086511906856425650000015080983274877274805_);">
		<g id="Group_15" transform="translate(1.901 1.136)">
			<path id="Path_1" class="st1" d="M508.9,239v31c-1.3,0.5-0.9,1.6-1,2.5c-0.7,10-2,19.9-3.9,29.7
				c-19.4,105.7-106.2,188.7-213.1,204c-6.3,0.9-12.8,0.6-18.9,2.7h-37c-0.7-1.7-2.3-1-3.5-1.1c-34.2-3.3-66.8-12.3-96.7-29.1
				C60.1,436.9,15.9,373.7,2.9,288.9c-1-6.6-0.5-13.5-2.8-19.9v-4c0.8-7,0.8-14,0-21v-4c2.3-6.3,1.8-12.9,2.8-19.4
				c11.6-77.6,50.3-137.7,116-180.5C157.1,15.3,199.5,3,245,0.9h19c32.4,1.5,63.8,7.8,93.1,21.6C441.3,62.2,491.3,128,506.1,220.2
				C507.2,226.4,506.6,232.9,508.9,239 M92.1,254.5c-1.6,45.1,35.2,92.4,91.7,93c50.5,0.5,92.2-41.9,92.2-92.9
				c0-51-41.5-93.4-92.1-93C127.3,162,90.5,209.4,92.1,254.5 M377.1,255.3c-0.2-14-1.5-27.2-5-40.2c-3.9-14.5-9.6-28.1-20.5-38.8
				c-12.4-12.2-28.4-12.3-41-0.2c-6.4,6.1-11.4,13.6-14.7,21.8c-13.8,33.7-14.4,68-4,102.6c3.7,12.3,9.4,23.5,18.8,32.5
				c12.4,11.8,28.2,11.8,40.6-0.1c5.1-5,9.4-10.9,12.5-17.3C373.5,296.4,376.5,275.8,377.1,255.3 M417.9,254.7
				c0.2-14.5-0.2-29-2.2-43.3c-1.5-10.2-3.1-20.4-7.7-29.8c-1.2-2.5-2.7-5.4-6-5.3c-3,0.1-4.4,2.8-5.6,5.1c-3.6,6.7-5.2,14-6.4,21.4
				c-5.5,34.2-5.5,69.1,0,103.3c1.2,7.4,2.8,14.7,6.4,21.4c1.3,2.3,2.6,5,5.6,5.1c3.3,0.1,4.7-2.9,6-5.3c1.9-3.9,3.4-8,4.4-12.2
				C417.2,295.3,418.1,275.1,417.9,254.7"/>
			<path id="Path_8" class="st2" d="M92.1,254.5c-1.6-45,35.2-92.4,91.8-92.9c50.6-0.4,92.1,41.9,92.1,93s-41.6,93.4-92.2,92.9
				C127.3,346.9,90.5,299.6,92.1,254.5"/>
			<path id="Path_9" class="st2" d="M377.1,255.3c-0.5,20.5-3.5,41.1-13.2,60.3c-3.2,6.4-7.4,12.3-12.5,17.3
				c-12.4,11.9-28.2,12-40.6,0.1c-9.4-9-15.1-20.2-18.8-32.5c-10.4-34.6-9.8-68.9,4-102.6c3.3-8.2,8.3-15.7,14.7-21.8
				c12.6-12,28.5-11.9,41,0.2c10.9,10.7,16.6,24.3,20.5,38.8C375.5,228.1,376.9,241.3,377.1,255.3"/>
			<path id="Path_10" class="st2" d="M417.9,254.7c0.2,20.3-0.7,40.6-5.6,60.4c-0.9,4.2-2.4,8.3-4.4,12.2c-1.3,2.5-2.7,5.4-6,5.3
				c-3-0.1-4.4-2.8-5.6-5.1c-3.6-6.7-5.2-14-6.4-21.4c-5.5-34.2-5.5-69.1,0-103.3c1.2-7.4,2.8-14.7,6.4-21.4c1.2-2.3,2.6-5,5.6-5.1
				c3.3-0.1,4.8,2.8,6,5.3c4.6,9.4,6.2,19.6,7.7,29.8C417.8,225.8,418.1,240.3,417.9,254.7"/>
		</g>
	</g>
</g>
</svg>
