<?xml version="1.0" encoding="utf-8"?>
<!-- Generator: Adobe Illustrator 26.0.3, SVG Export Plug-In . SVG Version: 6.00 Build 0)  -->
<svg version="1.1" id="Layer_1" xmlns="http://www.w3.org/2000/svg" xmlns:xlink="http://www.w3.org/1999/xlink" x="0px" y="0px"
	 width="1551.9px" height="515.3px" viewBox="0 0 1551.9 515.3" style="enable-background:new 0 0 1551.9 515.3;"
	 xml:space="preserve">
<style type="text/css">
	.st0{fill:#020058;}
	.st1{opacity:0.9;fill:url(#SVGID_1_);enable-background:new    ;}
	.st2{opacity:0.9;fill:url(#SVGID_00000136400619920409097800000014731116397988926892_);enable-background:new    ;}
	.st3{opacity:0.9;fill:url(#SVGID_00000178193296300455794800000015533180186072502197_);enable-background:new    ;}
</style>
<path class="st0" d="M720.4,270.4c0,16-2.3,30.6-7,43.8c-4.2,12.5-11,23.9-19.8,33.7c-8.6,9.4-19.1,16.8-30.8,21.7
	c-12.6,5.3-26.1,7.9-39.7,7.8c-13.6,0.2-27-2.5-39.5-7.8c-11.6-5-22.1-12.4-30.6-21.7c-8.8-9.8-15.6-21.2-20-33.7
	c-4.8-13.2-7.2-27.8-7.2-43.8c0-16,2.4-30.5,7.2-43.6c4.4-12.4,11.3-23.8,20.2-33.5c8.6-9.3,19.1-16.6,30.8-21.5
	c12.4-5.1,25.7-7.7,39.1-7.6c13.5-0.1,26.9,2.4,39.3,7.6c11.7,4.8,22.2,12.2,30.8,21.5c8.8,9.7,15.6,21.1,20,33.5
	C718,239.9,720.4,254.4,720.4,270.4z M672.4,270.4c0-20.1-4.3-36.1-13-47.8c-8.7-11.8-20.7-17.6-36.2-17.6
	c-15.5,0-27.6,5.9-36.2,17.6s-13,27.7-13,47.8c0,20.4,4.3,36.6,13,48.4c8.7,11.9,20.7,17.8,36.2,17.8c15.5,0,27.6-5.9,36.2-17.8
	S672.3,290.9,672.4,270.4L672.4,270.4z"/>
<path class="st0" d="M820.2,231.4l43.1-62h49.2l-68,97.1c14.2,17.9,27.8,35.9,40.9,54.1c11.9,16.4,22.6,33.6,32.2,51.4h-51
	c-2.7-5.4-5.8-10.6-9.1-15.7c-3.7-5.7-7.7-11.6-11.9-17.8c-4.2-6.2-8.6-12.3-13.3-18.3c-4.6-6-9.1-11.7-13.5-17.1
	c-9.5,11.1-18.4,22.8-26.6,34.9c-8.7,12.8-15.9,24-21.6,33.9h-47.8c4.2-8.5,8.9-16.7,14.1-24.6c5.6-8.6,11.6-17.4,17.9-26.4
	c6.4-9,12.9-18,19.7-27c6.8-9,13.5-17.5,20.1-25.6l-68.8-99h51.5L820.2,231.4z"/>
<path class="st0" d="M1300.3,169.3c-20.9,77-45.1,146.7-72.7,209.2c-4.5,10.4-9.8,20.3-15.9,29.8c-5,7.7-11.1,14.7-18.2,20.5
	c-6.6,5.4-14.3,9.4-22.5,11.8c-16.4,4.4-33.6,4.9-50.2,1.4c-7.1-1.5-12.5-3.2-16.1-5l8.5-37.6c8.8,3.5,18.2,5.3,27.6,5.4
	c12.2,0,21.7-2.9,28.6-8.7s12.9-14.8,18.1-26.9c-14.8-28.4-29-59.4-42.6-93c-14.1-34.9-26.2-70.6-36.4-106.9h50
	c2.6,10.8,5.8,22.6,9.5,35.3c3.8,12.7,7.8,25.5,12.2,38.5c4.4,13,9.1,26,14,38.9s9.8,24.9,14.8,36c8.2-23,15.9-47.5,23.2-73.4
	c7.2-26,13.8-51.1,19.7-75.4L1300.3,169.3z"/>
<path class="st0" d="M1077.3,190.3c-15.6-17.3-37.4-26-65.3-26c-11.9,0-23.8,2.3-34.9,6.8c-11.4,4.5-21.7,11.4-30.2,20.1
	c-8.8,8.9-15.8,20.1-21.1,33.5s-7.9,29.1-7.9,46.9c-0.1,14.2,1.9,28.4,6.2,42c3.9,12.3,10.4,23.7,19,33.3
	c8.5,9.4,19.4,16.8,32.5,22.1c13.2,5.3,28.7,7.9,46.5,7.9c6.9,0,13.7-0.4,20.5-1.2c6.7-0.8,13-1.8,18.8-2.9c5.2-1,10.4-2.3,15.5-3.9
	c3.6-1.1,7.2-2.4,10.7-4.1l-6.2-38.4c-5.4,2.3-12.8,4.5-22.3,6.6c-10.3,2.1-20.7,3.2-31.2,3.1c-19.4,0-34.2-4.5-44.4-13.4
	c-9-7.9-14.5-18.6-16.6-32.2h123.7l8.8,0.1l0.2-1.5l0.6-6.5c0.2-1.9,0.3-4,0.4-6.3c0.1-3.2,0.2-6.1,0.2-8.7
	C1100.7,233.5,1092.9,207.7,1077.3,190.3z M970.9,233.3c2-5.5,4.9-10.6,8.7-15.1c3.8-4.4,8.5-8.1,13.8-10.7c5.9-2.8,12.4-4.2,19-4.1
	c7,0,13,1.2,18,3.7c4.9,2.4,9.3,5.8,12.8,10.1c3.6,4.5,6.3,9.6,7.9,15.1c1.8,6,2.7,12.2,2.7,18.4l-0.4,5.9h-86.8l0.1-5.9
	C967.4,244.8,968.9,239,970.9,233.3L970.9,233.3z"/>
<path class="st0" d="M1460.1,190.3c-15.6-17.3-37.4-26-65.3-26c-11.9,0-23.8,2.3-34.9,6.8c-11.4,4.5-21.7,11.4-30.2,20.1
	c-8.8,8.9-15.8,20.1-21.1,33.5c-5.3,13.4-7.9,29.1-7.9,46.9c-0.1,14.2,1.9,28.4,6.2,42c3.9,12.3,10.4,23.7,19,33.3
	c8.5,9.4,19.4,16.8,32.5,22.1c13.2,5.3,28.7,7.9,46.5,7.9c6.9,0,13.7-0.4,20.5-1.2c6.7-0.8,13-1.8,18.8-2.9c5.2-1,10.4-2.3,15.5-3.9
	c3.6-1.1,7.2-2.4,10.7-4.1l-6.2-38.4c-5.4,2.3-12.8,4.5-22.3,6.6c-10.3,2.1-20.7,3.2-31.2,3.1c-19.4,0-34.2-4.5-44.3-13.4
	c-9-7.9-14.5-18.6-16.6-32.2h123.7l8.7,0.1l0.2-1.5l0.6-6.5c0.2-1.9,0.3-4,0.4-6.3c0.1-3.2,0.2-6.1,0.2-8.7
	C1483.5,233.5,1475.7,207.7,1460.1,190.3z M1353.8,233.3c2-5.5,4.9-10.6,8.7-15.1c3.8-4.4,8.5-8.1,13.8-10.7
	c5.9-2.8,12.4-4.2,19-4.1c6.2-0.2,12.4,1.1,18,3.7c4.9,2.4,9.3,5.8,12.8,10.1c3.6,4.5,6.3,9.6,8,15.1c1.8,6,2.7,12.2,2.7,18.4
	l-0.4,5.9h-86.8l0.1-5.9C1350.3,244.8,1351.7,239,1353.8,233.3L1353.8,233.3z"/>
<linearGradient id="SVGID_1_" gradientUnits="userSpaceOnUse" x1="434.4278" y1="352.8412" x2="123.5712" y2="149.1297" gradientTransform="matrix(1 0 0 -1 0 516)">
	<stop  offset="9.000000e-02" style="stop-color:#592AD7"/>
	<stop  offset="0.16" style="stop-color:#792ECC"/>
	<stop  offset="0.27" style="stop-color:#A632BD"/>
	<stop  offset="0.37" style="stop-color:#C936B1"/>
	<stop  offset="0.47" style="stop-color:#E239A9"/>
	<stop  offset="0.55" style="stop-color:#F13AA4"/>
	<stop  offset="0.63" style="stop-color:#F63BA2"/>
	<stop  offset="0.65" style="stop-color:#F63BA2;stop-opacity:0.88"/>
	<stop  offset="0.71" style="stop-color:#F63CA2;stop-opacity:0.68"/>
	<stop  offset="0.77" style="stop-color:#F63CA3;stop-opacity:0.51"/>
	<stop  offset="0.82" style="stop-color:#F63DA3;stop-opacity:0.37"/>
	<stop  offset="0.87" style="stop-color:#F63DA3;stop-opacity:0.28"/>
	<stop  offset="0.92" style="stop-color:#F63DA3;stop-opacity:0.22"/>
	<stop  offset="0.96" style="stop-color:#F63DA3;stop-opacity:0.2"/>
</linearGradient>
<path class="st1" d="M455.1,266.4c-2.3,20.2-7.6,39.8-15.7,58.4c-19.6,45.3-55.5,83.8-100.4,104.3s-98.6,22.2-143.7,2.2
	c-36-16-64.6-45.1-79.9-81.3c30.2,34.9,74.1,58.8,120.2,67.1c0.4,0.1,0.7,0.1,1.1,0.2c9,1.7,18.1,2.7,27.3,2.9
	c76.5,1.9,143.3-51.8,157.8-126.9c5.4-28.2,2.8-58.3-9.8-84.2s-34-43.8-59.1-53.4c-25.3-9.5-53-10.6-79-3
	c-50.1,14.6-92,58.2-108.2,107.4c-4.9,14.9-6.6,29.7-7.6,44.7c-2.2-2.6-4.3-5.3-6.3-8l-0.7-0.9c-0.7-0.9-1.4-1.9-2.1-2.8
	c-0.2-0.3-0.5-0.6-0.7-1c-7.4-10.3-13.7-21.3-18.9-32.8c-5.8-12.8-10.1-26.3-12.6-40.1c-0.7-3.8-1.2-7.6-1.7-11.4
	c-0.4-3.6-0.6-7.1-0.7-10.6c13.8-33.8,46.4-62.3,75.8-79.8c17.9-10.6,37.2-18.5,57.4-23.5c16.3-4,33.1-6,49.9-5.7
	c8.4,0.1,16.7,0.8,25,2.1c31.8,5,62.7,18.5,86.2,40.6c25.4,23.9,41.2,57.1,45.9,91.7C456.6,237.1,456.8,251.8,455.1,266.4z"/>
<linearGradient id="SVGID_00000000198276992566446340000010084993374450575036_" gradientUnits="userSpaceOnUse" x1="434.4278" y1="352.8412" x2="123.5712" y2="149.1297" gradientTransform="matrix(1 0 0 -1 0 516)">
	<stop  offset="0.2" style="stop-color:#103AA0"/>
	<stop  offset="0.24" style="stop-color:#193AA0"/>
	<stop  offset="0.31" style="stop-color:#323AA0"/>
	<stop  offset="0.4" style="stop-color:#5A3AA1"/>
	<stop  offset="0.51" style="stop-color:#913BA1"/>
	<stop  offset="0.62" style="stop-color:#D73BA2"/>
	<stop  offset="0.67" style="stop-color:#F63BA2"/>
	<stop  offset="0.79" style="stop-color:#F63CA2;stop-opacity:0.72"/>
	<stop  offset="1" style="stop-color:#F63DA3;stop-opacity:0.2"/>
</linearGradient>
<path style="opacity:0.9;fill:url(#SVGID_00000000198276992566446340000010084993374450575036_);enable-background:new    ;" d="
	M455.1,266.4c-2.3,20.2-7.6,39.8-15.7,58.4c-19.6,45.3-55.5,83.8-100.4,104.3s-98.6,22.2-143.7,2.2c-36-16-64.6-45.1-79.9-81.3
	c30.2,34.9,74.1,58.8,120.2,67.1c0.4,0.1,0.7,0.1,1.1,0.2c9,1.7,18.1,2.7,27.3,2.9c76.5,1.9,143.3-51.8,157.8-126.9
	c5.4-28.2,2.8-58.3-9.8-84.2s-34-43.8-59.1-53.4c-25.3-9.5-53-10.6-79-3c-50.1,14.6-92,58.2-108.2,107.4
	c-4.9,14.9-6.6,29.7-7.6,44.7c-2.2-2.6-4.3-5.3-6.3-8l-0.7-0.9c-0.7-0.9-1.4-1.9-2.1-2.8c-0.2-0.3-0.5-0.6-0.7-1
	c-7.4-10.3-13.7-21.3-18.9-32.8c-5.8-12.8-10.1-26.3-12.6-40.1c-0.7-3.8-1.2-7.6-1.7-11.4c-0.4-3.6-0.6-7.1-0.7-10.6
	c13.8-33.8,46.4-62.3,75.8-79.8c17.9-10.6,37.2-18.5,57.4-23.5c16.3-4,33.1-6,49.9-5.7c8.4,0.1,16.7,0.8,25,2.1
	c31.8,5,62.7,18.5,86.2,40.6c25.4,23.9,41.2,57.1,45.9,91.7C456.6,237.1,456.8,251.8,455.1,266.4z"/>
<linearGradient id="SVGID_00000137116498367036469200000003078496800011768727_" gradientUnits="userSpaceOnUse" x1="124.1686" y1="156.6334" x2="352.7913" y2="375.7818" gradientTransform="matrix(1 0 0 -1 0 516)">
	<stop  offset="7.000000e-02" style="stop-color:#020058"/>
	<stop  offset="0.26" style="stop-color:#1C1B6C;stop-opacity:0.87"/>
	<stop  offset="0.56" style="stop-color:#6564A3;stop-opacity:0.51"/>
	<stop  offset="0.69" style="stop-color:#8F8FC4;stop-opacity:0.3"/>
	<stop  offset="0.85" style="stop-color:#9292C6;stop-opacity:0.29"/>
	<stop  offset="0.93" style="stop-color:#9B9BCD;stop-opacity:0.24"/>
	<stop  offset="0.97" style="stop-color:#A2A2D2;stop-opacity:0.2"/>
</linearGradient>
<path style="opacity:0.9;fill:url(#SVGID_00000137116498367036469200000003078496800011768727_);enable-background:new    ;" d="
	M421.8,293.3c-14.5,75.2-81.2,128.8-157.8,126.9c-9.1-0.3-18.2-1.3-27.2-2.9c-0.4-0.1-0.7-0.1-1.1-0.2c-46-8.3-89.9-32.2-120.2-67.1
	c-2.3-2.7-4.6-5.4-6.7-8.3l-0.8-1.1l-0.4-0.5c-0.8-1.1-1.6-2.1-2.4-3.2c-43-59.8-51.8-146.4-7.7-208c29.3-41,80.4-62.4,130.1-58.7
	c22.6,1.7,49.4,6.7,69.9,18C280.8,88,264,89.9,247.7,94c-6-1.2-12-2.2-18.1-2.9c-28.4-3.2-56.6,3.5-79,21.7c-4.1,3.3-7.9,7-11.4,11
	c-18.2,20.6-25.5,47-24.8,73.6c0.1,3.5,0.3,7.1,0.7,10.6c0.4,3.8,1,7.6,1.7,11.4c2.5,13.8,6.8,27.3,12.6,40.1
	c5.2,11.5,11.6,22.5,18.9,32.8c0.2,0.3,0.5,0.6,0.7,1c0.7,1,1.4,1.9,2.1,2.8l0.7,0.9c2,2.7,4.1,5.4,6.3,8
	c28.6,34.4,70.9,62.4,114.8,70.4c35.2,6.4,74.6-2.4,98.5-29c19.2-21.4,26.3-51.6,25.4-80.3c-1.2-40.3-17.2-79.9-43.9-110.2
	c25.1,9.6,46.6,27.6,59.1,53.4S427.2,265.1,421.8,293.3z"/>
</svg>
