<svg xmlns="http://www.w3.org/2000/svg" width="206.567" height="73.537" viewBox="0 0 206.567 73.537">
  <g id="Group_18158" data-name="Group 18158" transform="translate(-351.773 -3112.424)">
    <g id="Group_18156" data-name="Group 18156" transform="translate(351.773 3112.424)">
      <rect id="Rectangle_7191" data-name="Rectangle 7191" width="158.326" height="37.794" rx="9" transform="translate(48.241 32.254)" fill="#242424"/>
      <g id="Group_18148" data-name="Group 18148" transform="translate(0 0)">
        <g id="Group_18157" data-name="Group 18157">
          <path id="Path_9822" data-name="Path 9822" d="M130.294,171.8l-4.523-12.849-6.816-7.909-5.346,1.61-2.189,7.16s3.119,8.43,3.477,8.843,10.3,5.059,10.3,5.059Z" transform="translate(-82.584 -109.71)" fill="#fff"/>
          <path id="Path_9823" data-name="Path 9823" d="M48.877,84.213l13.03.753s5.849.358,12.668,6.185c0,0,7.272-21.019-5.028-37.078l5.374,6.813S78.885,40.873,58.22,20c0,0,15.2,22.634,7.143,28.937,0,0-4.149-3.5-6.763-5.628,0,0,8.357,10.492,8.138,13.285,0,0-22.422-33.308-46.738-28.872,0,0,21.035,6.941,28.041,22.954,0,0-6.563-9.493-12.105-10.8a13.758,13.758,0,0,1,2.815,5.382S21.093,52.41,36,73.619c0,0-7.212-1.119-9.654-4.163,0,0,6.48,10.845,22.531,14.757m5.481-19.228c1.333,1.67,3.191,3.746,5.992,6.783a13.083,13.083,0,0,1-4.033,6.147s5.7.875,7.9-1.967c2.5,2.677,4.452,4.736,4.452,4.736C43.5,83.277,51.262,61.106,54.358,64.985" transform="translate(-20 -19.999)" fill="#464646"/>
          <path id="Path_9824" data-name="Path 9824" d="M62.65,127.354s18.879,1.111,25.7,6.938C89.541,111.258,83.7,106.97,83.7,106.97c7.973,23.666-6.725,4.8-6.725,4.8-20.8-24.288-25.8-28.093-26.945-28.667-.109-.03-.218-.064-.326-.09a9.924,9.924,0,0,1,.977,1.3A15.046,15.046,0,0,1,52.524,88.4s-17.659,7.15-2.751,28.359c0,0-7.212-1.119-9.654-4.163,0,0,6.48,10.845,22.531,14.757m5.481-19.228c.953,1.2,2.185,2.607,3.833,4.425l2.037,2.7a12.991,12.991,0,0,1-3.912,5.8s4.786.734,7.281-1.331l3.2,4.25c-22.893,1.316-15.457-19.627-12.441-15.849" transform="translate(-33.773 -63.14)" fill="#464646"/>
          <path id="Path_9825" data-name="Path 9825" d="M116.48,223.693c4.286,7.489,18.072,9.206,18.072,9.206s-17.18-.524-23-9.324Z" transform="translate(-82.672 -159.362)" fill="#808285"/>
          <path id="Path_9826" data-name="Path 9826" d="M127.181,223.948l4.842.115a26.959,26.959,0,0,0,13.23,9.092s-13.787-1.717-18.072-9.206" transform="translate(-93.373 -159.617)" fill="#d1d3d4"/>
        </g>
      </g>
    </g>
    <path id="Path_9950" data-name="Path 9950" d="M1.9,0a.47.47,0,0,1-.36-.15A.5.5,0,0,1,1.4-.5v-13a.487.487,0,0,1,.14-.36A.487.487,0,0,1,1.9-14H8a7.1,7.1,0,0,1,2.82.48,3.411,3.411,0,0,1,1.63,1.37,4.048,4.048,0,0,1,.53,2.11,2.847,2.847,0,0,1-.27,1.27,3.05,3.05,0,0,1-.66.91,2.994,2.994,0,0,1-.73.52,3.557,3.557,0,0,1,1.35,1.18,3.2,3.2,0,0,1,.59,1.92,4.217,4.217,0,0,1-.59,2.27A3.8,3.8,0,0,1,10.95-.51,6.718,6.718,0,0,1,8.18,0ZM5-2.6H7.78a1.64,1.64,0,0,0,1.3-.5,1.677,1.677,0,0,0,.44-1.14,1.66,1.66,0,0,0-.45-1.18A1.682,1.682,0,0,0,7.78-5.9H5ZM5-8.44H7.6a1.623,1.623,0,0,0,1.23-.43,1.49,1.49,0,0,0,.41-1.07,1.422,1.422,0,0,0-.41-1.05A1.671,1.671,0,0,0,7.6-11.4H5ZM15.98,0a.47.47,0,0,1-.36-.15.5.5,0,0,1-.14-.35v-13a.487.487,0,0,1,.14-.36.487.487,0,0,1,.36-.14h5.44a6.34,6.34,0,0,1,4.08,1.19,4.077,4.077,0,0,1,1.48,3.37,4.107,4.107,0,0,1-.68,2.4,4.257,4.257,0,0,1-1.8,1.48L27.24-.64a.5.5,0,0,1,.06.22.4.4,0,0,1-.13.29.4.4,0,0,1-.29.13H24.22a.739.739,0,0,1-.56-.19,1.517,1.517,0,0,1-.26-.35l-2.28-4.4H19.08V-.5a.48.48,0,0,1-.15.35.5.5,0,0,1-.37.15Zm3.1-7.78h2.3a1.941,1.941,0,0,0,1.41-.46,1.656,1.656,0,0,0,.47-1.24,1.768,1.768,0,0,0-.45-1.26,1.88,1.88,0,0,0-1.43-.48h-2.3ZM28.5,0a.4.4,0,0,1-.29-.13.4.4,0,0,1-.13-.29A.744.744,0,0,1,28.1-.6l4.7-12.84a.8.8,0,0,1,.25-.39.767.767,0,0,1,.53-.17h2.96a.767.767,0,0,1,.53.17.8.8,0,0,1,.25.39L42-.6a.4.4,0,0,1,.04.18.4.4,0,0,1-.13.29A.423.423,0,0,1,41.6,0H39.14a.611.611,0,0,1-.45-.15.746.746,0,0,1-.19-.27l-.78-2.04H32.38L31.62-.42a.787.787,0,0,1-.18.27.637.637,0,0,1-.48.15Zm4.7-5.34h3.72l-1.86-5.28ZM44.12,0a.47.47,0,0,1-.36-.15.5.5,0,0,1-.14-.35v-13a.487.487,0,0,1,.14-.36.487.487,0,0,1,.36-.14h2.12a.674.674,0,0,1,.49.15,1.064,1.064,0,0,1,.19.23L51.8-5.94V-13.5a.487.487,0,0,1,.14-.36A.487.487,0,0,1,52.3-14h2.4a.487.487,0,0,1,.36.14.487.487,0,0,1,.14.36V-.52a.522.522,0,0,1-.14.37A.47.47,0,0,1,54.7,0H52.56a.617.617,0,0,1-.47-.16,2.213,2.213,0,0,1-.19-.22l-4.88-7.4V-.5a.5.5,0,0,1-.14.35.47.47,0,0,1-.36.15ZM58.5,0a.47.47,0,0,1-.36-.15A.5.5,0,0,1,58-.5v-13a.487.487,0,0,1,.14-.36A.487.487,0,0,1,58.5-14h5.2a8.006,8.006,0,0,1,3.34.63,4.7,4.7,0,0,1,2.12,1.84,6.036,6.036,0,0,1,.8,2.99q.02.88.02,1.54t-.02,1.52a6.634,6.634,0,0,1-.79,3.08A4.309,4.309,0,0,1,67.11-.59,8.259,8.259,0,0,1,63.8,0Zm3.1-2.88h2.1a3.337,3.337,0,0,0,1.43-.27A1.8,1.8,0,0,0,65.99-4a3.586,3.586,0,0,0,.31-1.52q.04-.58.05-1.04t0-.92q-.01-.46-.05-1.02a2.735,2.735,0,0,0-.71-1.99,2.807,2.807,0,0,0-1.99-.63h-2ZM77.08,0a.47.47,0,0,1-.36-.15.5.5,0,0,1-.14-.35v-13a.487.487,0,0,1,.14-.36.487.487,0,0,1,.36-.14H79.2a.674.674,0,0,1,.49.15,1.064,1.064,0,0,1,.19.23l4.88,7.68V-13.5a.487.487,0,0,1,.14-.36.487.487,0,0,1,.36-.14h2.4a.487.487,0,0,1,.36.14.487.487,0,0,1,.14.36V-.52a.522.522,0,0,1-.14.37.47.47,0,0,1-.36.15H85.52a.617.617,0,0,1-.47-.16,2.212,2.212,0,0,1-.19-.22l-4.88-7.4V-.5a.5.5,0,0,1-.14.35.47.47,0,0,1-.36.15ZM90.16,0a.4.4,0,0,1-.29-.13.4.4,0,0,1-.13-.29.744.744,0,0,1,.02-.18l4.7-12.84a.8.8,0,0,1,.25-.39.767.767,0,0,1,.53-.17H98.2a.767.767,0,0,1,.53.17.8.8,0,0,1,.25.39L103.66-.6a.4.4,0,0,1,.04.18.4.4,0,0,1-.13.29.423.423,0,0,1-.31.13H100.8a.611.611,0,0,1-.45-.15.746.746,0,0,1-.19-.27l-.78-2.04H94.04L93.28-.42a.787.787,0,0,1-.18.27.637.637,0,0,1-.48.15Zm4.7-5.34h3.72l-1.86-5.28ZM105.78,0a.48.48,0,0,1-.35-.15.48.48,0,0,1-.15-.35v-13a.47.47,0,0,1,.15-.36.5.5,0,0,1,.35-.14h2.16a.657.657,0,0,1,.5.17,1,1,0,0,1,.2.27l3.52,6.3,3.52-6.3a2.034,2.034,0,0,1,.21-.27.623.623,0,0,1,.49-.17h2.14a.522.522,0,0,1,.37.14.47.47,0,0,1,.15.36v13a.48.48,0,0,1-.15.35.5.5,0,0,1-.37.15h-2.38a.5.5,0,0,1-.37-.15.48.48,0,0,1-.15-.35V-8l-2.24,4.18a1.193,1.193,0,0,1-.26.32.645.645,0,0,1-.44.14h-1.04a.645.645,0,0,1-.44-.14,1.193,1.193,0,0,1-.26-.32L108.68-8V-.5a.5.5,0,0,1-.14.35.47.47,0,0,1-.36.15Zm16.56,0a.47.47,0,0,1-.36-.15.5.5,0,0,1-.14-.35v-13a.487.487,0,0,1,.14-.36.487.487,0,0,1,.36-.14h9.34a.487.487,0,0,1,.36.14.487.487,0,0,1,.14.36v1.88a.487.487,0,0,1-.14.36.487.487,0,0,1-.36.14H125.3v2.7h5.94a.47.47,0,0,1,.36.15.522.522,0,0,1,.14.37v1.74a.5.5,0,0,1-.14.35.47.47,0,0,1-.36.15H125.3v2.78h6.54a.487.487,0,0,1,.36.14.487.487,0,0,1,.14.36V-.5a.5.5,0,0,1-.14.35.47.47,0,0,1-.36.15Z" transform="translate(410.228 3165.72)" fill="#707070"/>
    <path id="Path_9951" data-name="Path 9951" d="M6.12-.89,6.37,0h.6V-3.76H3.84v.8H6.12a2.428,2.428,0,0,1-.13.915,2.083,2.083,0,0,1-.445.74,2.076,2.076,0,0,1-.725.5,2.546,2.546,0,0,1-.99.18A2.268,2.268,0,0,1,2.775-.865,2.3,2.3,0,0,1,2.01-1.5a2.807,2.807,0,0,1-.47-.91A3.6,3.6,0,0,1,1.38-3.48,4.464,4.464,0,0,1,1.52-4.6a2.988,2.988,0,0,1,.435-.97,2.244,2.244,0,0,1,.76-.685A2.251,2.251,0,0,1,3.83-6.51a2.91,2.91,0,0,1,.755.1,2.077,2.077,0,0,1,.635.285,1.673,1.673,0,0,1,.47.485,1.868,1.868,0,0,1,.26.7H6.9a2.887,2.887,0,0,0-.375-1.075,2.523,2.523,0,0,0-.68-.735,2.771,2.771,0,0,0-.92-.425,4.3,4.3,0,0,0-1.1-.135A3.3,3.3,0,0,0,2.345-7a3.11,3.11,0,0,0-1.06.845,3.655,3.655,0,0,0-.64,1.235A5.063,5.063,0,0,0,.43-3.43,4.017,4.017,0,0,0,.66-2.08,3.479,3.479,0,0,0,1.33-.93a3.232,3.232,0,0,0,1.07.8,3.334,3.334,0,0,0,1.43.3A3.377,3.377,0,0,0,5.08-.085,2.374,2.374,0,0,0,6.12-.89Zm2.8-2.68a4.116,4.116,0,0,1,.14-1.065A2.892,2.892,0,0,1,9.5-5.58a2.249,2.249,0,0,1,.77-.675,2.316,2.316,0,0,1,1.12-.255,2.316,2.316,0,0,1,1.12.255,2.249,2.249,0,0,1,.77.675,2.892,2.892,0,0,1,.44.945,4.116,4.116,0,0,1,.14,1.065A4.116,4.116,0,0,1,13.72-2.5a2.892,2.892,0,0,1-.44.945,2.249,2.249,0,0,1-.77.675,2.316,2.316,0,0,1-1.12.255,2.316,2.316,0,0,1-1.12-.255A2.249,2.249,0,0,1,9.5-1.56,2.892,2.892,0,0,1,9.06-2.5,4.116,4.116,0,0,1,8.92-3.57Zm-.95,0a4.6,4.6,0,0,0,.215,1.4A3.541,3.541,0,0,0,8.83-.97,3.1,3.1,0,0,0,9.9-.145,3.428,3.428,0,0,0,11.39.16a3.428,3.428,0,0,0,1.49-.305A3.1,3.1,0,0,0,13.95-.97,3.54,3.54,0,0,0,14.6-2.165a4.6,4.6,0,0,0,.215-1.4,4.6,4.6,0,0,0-.215-1.4,3.54,3.54,0,0,0-.645-1.2A3.148,3.148,0,0,0,12.88-7a3.381,3.381,0,0,0-1.49-.31A3.381,3.381,0,0,0,9.9-7a3.148,3.148,0,0,0-1.07.83,3.541,3.541,0,0,0-.645,1.2A4.6,4.6,0,0,0,7.97-3.57Zm8-3.57V0h4.96V-.8H16.92V-3.27h3.71v-.8H16.92V-6.34H20.9v-.8ZM26.21-5.05h.9a2.517,2.517,0,0,0-.225-1.015,1.978,1.978,0,0,0-.56-.7,2.31,2.31,0,0,0-.825-.41,3.815,3.815,0,0,0-1.02-.13,3.663,3.663,0,0,0-.955.125,2.626,2.626,0,0,0-.83.38,1.923,1.923,0,0,0-.585.65,1.892,1.892,0,0,0-.22.935,1.561,1.561,0,0,0,.195.815,1.581,1.581,0,0,0,.52.53,3.022,3.022,0,0,0,.735.33q.41.125.835.22l.835.185a3.807,3.807,0,0,1,.735.235,1.433,1.433,0,0,1,.52.375.9.9,0,0,1,.195.6,1.168,1.168,0,0,1-.16.64,1.164,1.164,0,0,1-.42.395A1.9,1.9,0,0,1,25.3-.69a3.547,3.547,0,0,1-.645.06,3.052,3.052,0,0,1-.78-.1,1.941,1.941,0,0,1-.665-.31,1.591,1.591,0,0,1-.46-.535,1.613,1.613,0,0,1-.175-.775h-.9A2.511,2.511,0,0,0,21.9-1.225a2.157,2.157,0,0,0,.64.78,2.8,2.8,0,0,0,.94.455A4.186,4.186,0,0,0,24.62.16,4.341,4.341,0,0,0,25.6.045a2.85,2.85,0,0,0,.9-.37,2.1,2.1,0,0,0,.655-.66,1.793,1.793,0,0,0,.255-.975,1.791,1.791,0,0,0-.195-.88,1.737,1.737,0,0,0-.52-.58,2.754,2.754,0,0,0-.735-.365q-.41-.135-.835-.235T24.29-4.2a4.373,4.373,0,0,1-.735-.215,1.446,1.446,0,0,1-.52-.335.744.744,0,0,1-.195-.535,1.16,1.16,0,0,1,.135-.585,1.05,1.05,0,0,1,.36-.375,1.567,1.567,0,0,1,.515-.2,2.9,2.9,0,0,1,.59-.06,2.016,2.016,0,0,1,1.215.345A1.488,1.488,0,0,1,26.21-5.05Zm5.13-2.09V0h.95V-3.27h3.76V0H37V-7.14h-.95v3.07H32.29V-7.14Zm7.22,0V0h4.96V-.8H39.51V-3.27h3.71v-.8H39.51V-6.34h3.98v-.8Zm6.11,0V0h.95V-3.05h2.32a1.261,1.261,0,0,1,.56.105.938.938,0,0,1,.34.28,1.161,1.161,0,0,1,.19.41q.06.235.1.5a3.485,3.485,0,0,1,.06.53q.01.27.02.505a3.082,3.082,0,0,0,.045.425.6.6,0,0,0,.135.3h1.06a1.22,1.22,0,0,1-.225-.415A3.252,3.252,0,0,1,50.11-.91a4.6,4.6,0,0,1-.05-.53q-.01-.27-.03-.53a4.6,4.6,0,0,0-.085-.5,1.518,1.518,0,0,0-.17-.435,1.1,1.1,0,0,0-.31-.335,1.272,1.272,0,0,0-.505-.2v-.02a1.519,1.519,0,0,0,.945-.67,2.167,2.167,0,0,0,.3-1.14,1.721,1.721,0,0,0-.575-1.37,2.351,2.351,0,0,0-1.6-.5ZM47.6-3.85H45.62V-6.34h2.36a1.233,1.233,0,0,1,.97.34,1.281,1.281,0,0,1,.3.88,1.31,1.31,0,0,1-.135.635,1.068,1.068,0,0,1-.36.39,1.375,1.375,0,0,1-.525.2A3.829,3.829,0,0,1,47.6-3.85Zm3.92-3.29V0h4.96V-.8H52.47V-3.27h3.71v-.8H52.47V-6.34h3.98v-.8Z" transform="translate(410.228 3178.171)" fill="#707070"/>
  </g>
</svg>
