<?xml version="1.0" encoding="utf-8"?>
<!-- Generator: Adobe Illustrator 26.4.1, SVG Export Plug-In . SVG Version: 6.00 Build 0)  -->
<svg version="1.1" id="Layer_1" xmlns="http://www.w3.org/2000/svg" xmlns:xlink="http://www.w3.org/1999/xlink" x="0px" y="0px"
	 viewBox="0 0 512 512" style="enable-background:new 0 0 512 512;" xml:space="preserve">
<style type="text/css">
	.st0{clip-path:url(#SVGID_00000072259114100659497190000016855900308036407701_);}
	.st1{fill:#FE0101;}
	.st2{fill:#FEFBFB;}
</style>
<g>
	<defs>
		<rect id="SVGID_1_" width="512" height="512"/>
	</defs>
	<clipPath id="SVGID_00000169545395342605952080000009493562797145972623_">
		<use xlink:href="#SVGID_1_"  style="overflow:visible;"/>
	</clipPath>
	<g id="Custom_Size_2" style="clip-path:url(#SVGID_00000169545395342605952080000009493562797145972623_);">
		<g id="Group_18">
			<path id="Path_12" class="st1" d="M256,508.7C115.8,508.8,0.9,394.3,3.3,251.5C5.6,113.5,119.2,0.7,261,3.3
				c137.8,2.5,250.3,116,247.7,257.7C506.1,398.3,394.2,508.7,256,508.7 M267,86.2c-48.8,0-97.6,0-146.4-0.1c-3.5,0-4.9,1.1-6,4.2
				c-6.3,17.5-12.8,34.9-19.3,52.4c-0.7,2-1.1,4.2-1.1,6.3c0,75.8,0,151.6-0.1,227.4c0,3.9,1.2,4.6,4.8,4.6c23.7-0.2,47.3,0,71-0.2
				c4.3,0,5.2,1.2,5.1,5.2c-0.3,11.7,0,23.3-0.2,35c-0.1,3.6,0.6,4.9,4.6,4.8c11.8-0.3,23.7-0.2,35.5,0c2.8,0.1,5.5-1.1,7.4-3.2
				c12.6-12.8,25.5-25.4,38.1-38.3c2.2-2.4,5.4-3.7,8.7-3.5c19.2,0.2,38.3,0,57.5,0.1c2.6,0.1,5.2-0.9,7-2.8
				c27-27.2,54.1-54.3,81.3-81.3c2.1-1.9,3.2-4.6,3.1-7.4c-0.1-66-0.1-131.9,0-197.9c0-4.4-1-5.5-5.4-5.5
				C364,86.3,315.5,86.2,267,86.2"/>
			<path id="Path_13" class="st2" d="M267,86.2c48.5,0,97,0.1,145.4-0.1c4.5,0,5.5,1.1,5.4,5.5c-0.1,66-0.2,131.9,0,197.9
				c0.1,2.8-1,5.5-3.1,7.4c-27.2,27-54.3,54.1-81.3,81.3c-1.8,1.9-4.3,3-7,2.8c-19.2-0.1-38.3,0-57.5-0.1c-3.3-0.2-6.5,1.1-8.7,3.5
				c-12.6,12.9-25.4,25.5-38.1,38.3c-1.8,2.1-4.6,3.3-7.4,3.2c-11.8-0.2-23.7-0.3-35.5,0c-3.9,0.1-4.7-1.2-4.6-4.8
				c0.2-11.7-0.1-23.3,0.2-35c0.1-4.1-0.8-5.3-5.1-5.2c-23.7,0.2-47.3,0-71,0.2c-3.6,0-4.8-0.7-4.8-4.6
				c0.1-75.8,0.2-151.6,0.1-227.4c0-2.2,0.4-4.3,1.1-6.3c6.5-17.4,13-34.9,19.3-52.4c1.1-3.1,2.5-4.2,6-4.2
				C169.4,86.3,218.2,86.3,267,86.2 M211.2,372.6c2.3-0.6,3.1-2.1,4.3-3.3c11.9-11.9,23.9-23.7,35.6-35.7c2.2-2.4,5.4-3.7,8.7-3.5
				c24,0.1,48,0,72,0.1c2.6,0.2,5.2-0.9,7-2.8c15-15.2,30.1-30.2,45.2-45.2c1.9-1.8,3-4.4,2.8-7c-0.1-51.1-0.1-102.3,0-153.4
				c0-4.1-1-5.3-5.2-5.3c-77.3,0.1-154.6,0.1-231.9,0c-4,0-5.4,0.8-5.4,5.1c0.1,68,0.1,135.9,0,203.9c0,4.3,1.5,4.8,5.1,4.7
				c19-0.1,38,0,57-0.2c3.7,0,4.8,0.8,4.8,4.6C211,347.1,211.2,359.6,211.2,372.6"/>
			<path id="Path_14" class="st1" d="M211.2,372.6c0-12.9-0.2-25.4,0.1-37.9c0.1-3.9-1.1-4.7-4.8-4.6c-19,0.2-38,0-57,0.2
				c-3.6,0-5.1-0.5-5.1-4.7c0.2-68,0.2-135.9,0-203.9c0-4.3,1.4-5.1,5.4-5.1c77.3,0.1,154.6,0.1,231.9,0c4.2,0,5.2,1.2,5.2,5.3
				c-0.1,51.1-0.2,102.3,0,153.4c0.1,2.6-0.9,5.2-2.8,7c-15.2,15-30.2,30.1-45.2,45.2c-1.8,1.9-4.4,2.9-7,2.8c-24-0.1-48,0-72-0.1
				c-3.3-0.2-6.5,1.1-8.7,3.5c-11.7,12-23.7,23.9-35.6,35.7C214.3,370.4,213.5,372,211.2,372.6 M256,219.5c0-13.6-0.1-27.3,0.1-40.9
				c0-2.8-0.7-3.7-3.5-3.6c-7.6,0.2-15.3,0.2-23,0c-2.4,0-3.1,0.7-3.1,3.1c0.1,27.4,0.1,54.9,0,82.3c0,3.1,1.3,3.5,3.9,3.4
				c7.3-0.1,14.6-0.2,22,0c3.2,0.1,3.8-1,3.8-4C255.9,246.5,256,233,256,219.5 M307,219c0,13.6,0.1,27.3-0.1,40.9c0,3,0.6,4.1,3.8,4
				c7.5-0.3,15-0.2,22.5,0c2.8,0.1,3.7-0.8,3.7-3.7c-0.1-27.3-0.1-54.6,0-81.9c0-2.7-0.8-3.4-3.4-3.4c-7.5,0.1-15,0.2-22.5,0
				c-3.3-0.1-4.1,0.8-4.1,4.1C307.1,192.4,307,205.7,307,219"/>
			<path id="Path_15" class="st2" d="M256,219.5c0,13.5-0.1,26.9,0.1,40.4c0,2.9-0.6,4.1-3.8,4c-7.3-0.3-14.6-0.2-22,0
				c-2.6,0-3.9-0.4-3.9-3.4c0.1-27.4,0.1-54.9,0-82.3c0-2.4,0.7-3.2,3.1-3.1c7.6,0.1,15.3,0.2,23,0c2.9-0.1,3.6,0.9,3.5,3.6
				C255.9,192.2,256,205.9,256,219.5"/>
			<path id="Path_16" class="st2" d="M307,219c0-13.3,0.1-26.6-0.1-39.9c0-3.3,0.8-4.2,4.1-4.1c7.5,0.2,15,0.2,22.5,0
				c2.6-0.1,3.4,0.7,3.4,3.4c-0.1,27.3-0.1,54.6,0,81.9c0,2.8-0.8,3.7-3.7,3.7c-7.5-0.2-15-0.2-22.5,0c-3.2,0.1-3.8-1-3.8-4
				C307.1,246.3,307,232.6,307,219"/>
		</g>
	</g>
</g>
</svg>
