<?xml version="1.0" encoding="UTF-8" standalone="no"?>
<svg
   xmlns:dc="http://purl.org/dc/elements/1.1/"
   xmlns:cc="http://creativecommons.org/ns#"
   xmlns:rdf="http://www.w3.org/1999/02/22-rdf-syntax-ns#"
   xmlns:svg="http://www.w3.org/2000/svg"
   xmlns="http://www.w3.org/2000/svg"
   xmlns:sodipodi="http://sodipodi.sourceforge.net/DTD/sodipodi-0.dtd"
   xmlns:inkscape="http://www.inkscape.org/namespaces/inkscape"
   version="1.1"
   id="svg1236"
   width="1267.2524"
   height="291.69379"
   viewBox="0 0 1267.2524 291.69379"
   sodipodi:docname="ryu_team_logo.svg"
   inkscape:version="1.0.2 (1.0.2+r75+1)"
   inkscape:export-filename="/home/t0dd/Pictures/Logos/dojo_black.png"
   inkscape:export-xdpi="300"
   inkscape:export-ydpi="300">
  <metadata
     id="metadata1242">
    <rdf:RDF>
      <cc:Work
         rdf:about="">
        <dc:format>image/svg+xml</dc:format>
        <dc:type
           rdf:resource="http://purl.org/dc/dcmitype/StillImage" />
        <dc:title />
      </cc:Work>
    </rdf:RDF>
  </metadata>
  <defs
     id="defs1240">
    <rect
       x="1026.2179"
       y="1292.7863"
       width="685.68921"
       height="157.26668"
       id="rect843" />
  </defs>
  <sodipodi:namedview
     pagecolor="#ffffff"
     bordercolor="#666666"
     borderopacity="1"
     objecttolerance="10"
     gridtolerance="10"
     guidetolerance="10"
     inkscape:pageopacity="0"
     inkscape:pageshadow="2"
     inkscape:window-width="1080"
     inkscape:window-height="1887"
     id="namedview1238"
     showgrid="false"
     inkscape:zoom="0.76095916"
     inkscape:cx="275.02054"
     inkscape:cy="133.07041"
     inkscape:window-x="0"
     inkscape:window-y="0"
     inkscape:window-maximized="1"
     inkscape:current-layer="g1244"
     inkscape:document-rotation="0" />
  <g
     inkscape:groupmode="layer"
     inkscape:label="Image"
     id="g1244"
     style="display:inline"
     transform="translate(-338.52248,-1100.471)">
    <path
       style="fill:#ff3399;fill-opacity:1;stroke-width:0.281774"
       d="m 436.39748,1310.491 c -11.15615,-0.9938 -21.4169,-3.9901 -32.34281,-9.4444 -4.87367,-2.433 -5.36064,-2.742 -5.22826,-3.3178 0.0749,-0.3262 0.80331,-0.1224 3.43273,0.9605 16.42917,6.7665 31.90689,8.8233 48.65088,6.4649 15.77536,-2.2219 31.09372,-8.3291 44.04817,-17.5612 21.07738,-15.0209 35.63351,-37.5957 40.46327,-62.7538 1.39016,-7.2411 1.55905,-9.3015 1.55905,-19.0197 0,-9.7279 -0.17326,-11.8353 -1.56361,-19.0196 -6.76549,-34.9597 -31.86162,-63.7513 -65.60519,-75.2655 -6.62798,-2.2616 -13.02234,-3.7354 -20.87532,-4.8116 -1.72611,-0.2365 -5.82924,-0.3672 -11.55271,-0.368 -9.68398,0 -12.37437,0.2463 -20.21027,1.8607 -6.19596,1.2764 -15.71219,4.2037 -16.5997,5.106 -0.19371,0.197 -0.90711,1.3649 -1.58533,2.5954 -0.67822,1.2304 -1.36595,2.2815 -1.52829,2.3356 -0.35485,0.1182 -0.65178,-1.2193 -0.65178,-2.936 0,-1.4988 -0.25054,-2.0215 -1.90762,-3.9801 -0.77828,-0.9201 -1.16652,-1.5988 -1.00613,-1.7592 0.41659,-0.4166 6.76212,-2.9324 10.19805,-4.043 6.72298,-2.1735 14.7057,-3.8594 22.3019,-4.7103 4.20206,-0.4706 16.93096,-0.4706 21.13302,0 21.38961,2.3958 39.97372,10.1299 56.405,23.4738 3.97498,3.2281 11.16504,10.3955 14.3905,14.3449 19.17107,23.4749 27.30038,52.6783 23.01387,82.6744 -1.59917,11.1905 -5.35818,22.7743 -10.78837,33.2452 -14.24277,27.4641 -40.38697,47.5856 -70.48212,54.2455 -6.86994,1.5203 -17.22967,2.257 -23.66893,1.6833 z m -2.95863,-7.5239 c -14.73631,-0.4477 -30.17755,-5.171 -43.0414,-13.1662 -2.1608,-1.3428 -2.59865,-1.739 -2.75848,-2.4952 -0.10453,-0.4945 -0.87508,-3.9302 -1.7124,-7.6351 -0.8373,-3.7048 -1.46824,-6.7901 -1.40209,-6.8562 0.0662,-0.066 0.92343,0.508 1.90502,1.2761 4.05812,3.1754 10.5539,7.0542 15.52328,9.2693 8.12288,3.6208 14.90575,5.4012 25.8506,6.7853 1.75822,0.2225 2.18945,0.4609 10.77342,5.959 4.91804,3.1501 8.88294,5.8227 8.81082,5.9395 -0.26779,0.4333 -9.64633,1.0542 -13.94877,0.9235 z m 12.53893,-7.3464 c -7.9685,-5.1383 -8.14345,-5.2708 -7.04434,-5.3371 6.18343,-0.3726 13.23802,-1.6094 18.80762,-3.2977 8.90206,-2.6983 17.39772,-7.0402 24.93124,-12.7417 l 3.44531,-2.6074 10.34865,-1.6916 c 5.69178,-0.9305 10.38124,-1.6592 10.42103,-1.6194 0.16704,0.1671 -5.41766,6.2031 -8.433,9.1146 -11.32067,10.9307 -25.59652,18.8574 -40.97489,22.7513 -1.57782,0.3995 -2.9726,0.72 -3.09948,0.7122 -0.12688,-0.011 -3.90786,-2.3852 -8.40214,-5.2832 z m -65.5505,-13.0605 c -2.86672,-2.3669 -8.06938,-7.7279 -10.75978,-11.0875 -9.10725,-11.3722 -14.7125,-24.0848 -16.95869,-38.462 -0.62257,-3.9849 -0.87472,-14.4843 -0.44738,-18.629 0.27185,-2.6366 1.11886,-8.4294 1.25891,-8.6096 0.0204,-0.026 0.37496,-0.1325 0.78812,-0.2363 l 0.75121,-0.1884 0.006,5.4488 c 0.0135,12.4708 2.56002,23.5854 7.91168,34.5304 3.34826,6.8479 7.89199,13.6139 12.48088,18.5851 1.12679,1.2208 2.32546,2.5337 2.66372,2.9179 0.47029,0.534 1.04722,2.6189 2.45177,8.8601 1.01022,4.4888 1.79407,8.2043 1.7419,8.2565 -0.0522,0.052 -0.90187,-0.5716 -1.88823,-1.386 z m 111.62042,-16.4445 c 0,-0.069 0.90128,-1.1117 2.0028,-2.3157 9.41121,-10.2873 16.43937,-24.4716 19.00069,-38.3472 l 0.65146,-3.5291 6.64247,-6.6424 6.64247,-6.6426 v 4.0268 c 0,16.3896 -5.65838,34.5912 -15.22911,48.988 l -0.96514,1.452 -9.02061,1.4565 c -4.96132,0.8013 -9.1791,1.5069 -9.37283,1.5685 -0.19371,0.061 -0.3522,0.056 -0.3522,-0.014 z m 22.36178,-53.142 c 0.20835,-2.6875 -0.24573,-10.4315 -0.83143,-14.1796 -1.34071,-8.5802 -3.46821,-15.3326 -7.34242,-23.3043 l -2.14157,-4.4066 0.81084,-9.823 0.8108,-9.823 1.58027,1.979 c 10.47614,13.1198 17.84051,31.2033 19.27518,47.3314 l 0.17544,1.9724 -6.25168,6.1991 -6.25168,6.199 z m -157.68403,-22.1161 c -1.04236,-2.2221 -1.07052,-2.2522 -1.99967,-2.1438 -0.9152,0.1069 -0.96121,0.062 -1.59308,-1.536 -0.35787,-0.9053 -0.74766,-1.7564 -0.86621,-1.8913 -0.12067,-0.1374 -1.41213,-0.02 -2.93459,0.2668 l -2.71907,0.512 -0.70439,-0.9 c -0.57446,-0.734 -0.80124,-0.8482 -1.22955,-0.619 -0.85027,0.4551 -1.03459,0.3506 -1.91918,-1.0869 -0.74289,-1.2074 -0.97999,-1.3867 -2.01845,-1.526 -3.4034,-0.4564 -2.86627,-2.8099 1.43806,-6.3006 2.29441,-1.8608 2.16256,-1.6618 4.36418,-6.5847 l 1.57519,-3.5222 0.1197,-3.8608 0.1197,-3.861 -1.10565,-0.3311 c -1.57931,-0.4733 -1.95485,-1.4057 -1.04751,-2.6008 0.68826,-0.9066 2.11274,-5.2597 3.84407,-11.7473 l 0.93996,-3.5222 2.00708,-2.1753 c 3.85636,-4.1795 7.47839,-9.9058 8.78313,-13.8857 0.6346,-1.9358 0.74286,-2.7717 0.76633,-5.9173 0.015,-2.0146 -0.0757,-4.297 -0.20176,-5.0719 l -0.22912,-1.4088 0.73199,1.0561 c 2.10343,3.0346 3.06355,7.0753 3.06326,12.8917 -1.1e-4,2.402 -0.14836,5.1179 -0.32945,6.0353 -0.18107,0.9174 -0.27372,1.7235 -0.20589,1.7913 0.18001,0.18 7.97343,-3.6576 13.71579,-6.754 l 4.96476,-2.677 0.1756,1.8588 c 0.37983,4.0209 0.11496,9.7196 -0.55462,11.9327 -0.0821,0.2714 -0.7718,0.7612 -1.53261,1.0885 -2.36857,1.0189 -4.16956,3.4261 -5.07271,6.7802 -0.23863,0.8862 -1.0701,2.0139 -3.27594,4.4432 -3.15616,3.4759 -5.16382,6.2306 -5.16382,7.085 0,0.3189 0.71411,1.0526 1.81995,1.8698 1.84844,1.3661 2.12189,1.8586 1.49088,2.6847 -0.56432,0.7389 -3.19289,1.6191 -4.83504,1.6191 h -1.50335 l -9.40494,8.447 c -9.90362,8.8947 -10.46119,9.5341 -8.84767,10.1476 1.95533,0.7434 1.51923,1.0414 9.66772,-6.6044 4.22039,-3.96 7.72205,-7.2 7.78146,-7.2 0.0594,0 -0.006,0.5039 -0.14365,1.12 -0.15002,0.6677 -0.14566,1.8686 0.0111,2.9732 0.2623,1.8521 0.26174,1.8544 -0.98636,4.2406 -0.68684,1.313 -1.24879,2.5744 -1.24879,2.803 0,0.5353 -0.39803,0.5321 -0.84532,-0.011 -0.63658,-0.767 -1.03148,-0.4437 -1.54998,1.2688 -0.4368,1.4425 -0.46039,1.8481 -0.16038,2.7572 0.32322,0.9794 0.26997,1.3008 -0.65607,3.9612 -0.55431,1.5926 -1.10451,3.6738 -1.22267,4.6253 l -0.21484,1.7298 -1.05725,-2.2539 z m -2.76357,-38.1028 c 0.47403,-1.1639 0.81992,-2.1582 0.76862,-2.2095 -0.0513,-0.051 -0.87541,0.6145 -1.83137,1.4797 -1.56363,1.4149 -1.73811,1.6831 -1.73811,2.6716 v 1.099 l 0.96948,-0.4623 c 0.80683,-0.3847 1.11408,-0.8173 1.83138,-2.5785 z m -5.68904,28.2153 c -0.29272,-0.076 -0.4931,-0.3973 -0.4931,-0.7894 0,-0.9129 17.15167,-16.303 18.31176,-16.431 0.74442,-0.082 0.79983,0 1.36404,2.078 0.56603,2.0822 0.78508,2.6033 0.98858,2.3516 0.0522,-0.065 1.09193,-1.4488 2.3105,-3.0761 8.73649,-11.6665 18.97707,-23.6598 21.95616,-25.714 l 0.85713,-0.5909 -0.59505,0.684 c -0.3273,0.3762 -3.18901,3.7905 -6.35936,7.5875 -10.3241,12.3643 -17.34817,21.4572 -18.2417,23.6143 -0.3612,0.872 -1.20254,1.2165 -1.55972,0.6386 -0.0888,-0.1438 -0.30471,-1.3166 -0.47971,-2.6064 -0.17502,-1.2897 -0.40039,-2.4391 -0.50083,-2.5541 -0.10041,-0.1148 -3.83631,3.2136 -8.30195,7.3967 -4.46561,4.1829 -8.26429,7.5907 -8.44147,7.5727 -0.1772,-0.018 -0.54407,-0.091 -0.81528,-0.1615 z m 149.77765,-18.7276 c -8.55282,-11.2104 -20.60494,-20.3968 -33.61659,-25.6234 l -2.67684,-1.0752 -3.00323,-7.4793 c -2.94053,-7.3232 -2.98756,-7.4756 -2.25418,-7.3014 15.34219,3.6451 30.67261,12.0701 41.97135,23.0662 l 3.18486,3.0994 -0.72644,8.735 c -0.39953,4.8042 -0.75863,8.8425 -0.79796,8.9737 -0.0394,0.1314 -0.97579,-0.9464 -2.08097,-2.395 z m -121.45623,-0.7509 c -0.35123,-0.2229 2.412,-4.0689 7.62895,-10.6179 4.39125,-5.5125 5.7183,-6.5153 9.34148,-7.0586 l 1.3835,-0.2075 -1.18324,1.4861 c -0.65078,0.8174 -1.18324,1.5851 -1.18324,1.706 0,0.6502 4.42775,3.3695 5.48654,3.3695 0.83601,0 0.41576,0.602 -0.7939,1.137 -1.62649,0.7195 -4.25386,1.3019 -7.44458,1.6501 -3.9122,0.4271 -7.12833,2.0229 -6.71311,3.3312 0.12033,0.3791 -0.067,0.6607 -0.6801,1.0229 -0.68393,0.404 -0.79397,0.5973 -0.57406,1.0082 0.36176,0.676 2.19947,2.2762 2.61394,2.2762 0.69204,0 -0.25079,0.4976 -1.52935,0.807 -1.50198,0.3637 -5.82554,0.4248 -6.35283,0.09 z m -5.30764,-3.326 c -0.91819,-0.7161 -1.63319,-1.4272 -1.58887,-1.5802 0.15983,-0.5514 2.34307,-3.6 3.85117,-5.3776 1.79083,-2.111 3.65038,-3.4302 5.64303,-4.0033 1.58755,-0.4566 5.51892,-1.0551 5.70541,-0.8687 -3.22783,4.449 -6.54379,7.5756 -10.0915,12.2591 -0.37148,0.5025 -0.90099,0.8728 -1.24759,0.8728 -0.33121,0 -1.35345,-0.5859 -2.27165,-1.3021 z m 9.12646,-16.2299 c 1.96626,-1.7728 6.20626,-3.6189 10.90065,-4.7463 4.146,-0.9956 4.20015,-0.8803 0.92037,1.9594 -1.59103,1.3776 -3.63138,3.2773 -4.53409,4.2219 -1.27815,1.3374 -1.95969,1.812 -3.0802,2.1447 -4.45566,1.2089 -8.42608,0.3473 -4.20673,-3.5797 z m 12.62659,-1.6399 c 1.95221,-2.2174 2.86664,-3.0616 3.18338,-2.9391 1.66456,0.6439 4.91927,1.0346 7.61784,0.9146 l 2.95783,-0.1315 -2.10702,0.9699 c -5.13934,2.3655 -11.12123,4.2948 -13.32094,4.2963 l -1.07008,9e-4 c 0.91293,-1.0371 1.82623,-2.074 2.73899,-3.1111 z m -8.26599,-2.8461 c 0.39637,-0.5206 0.99151,-1.6714 1.32255,-2.5575 0.42814,-1.146 0.97767,-1.9419 1.90364,-2.7569 1.29095,-1.1364 4.60138,-2.9229 6.02897,-3.2536 l 0.7427,-0.1722 -0.25032,1.361 c -0.36004,1.9574 -1.77276,4.6668 -3.02176,5.7951 -1.02367,0.9248 -2.95525,1.6201 -6.49293,2.3373 l -0.9535,0.1932 z m 14.57024,-1.7207 c -2.24696,-0.7783 -4.12883,-1.4522 -4.18194,-1.4971 -0.0857,-0.072 0.19229,-1.1107 1.82146,-6.7997 l 0.419,-1.4631 3.57732,-1.4057 c 6.43739,-2.5296 13.06908,-4.2911 20.47484,-5.4386 6.90451,-1.0698 19.57275,-1.0278 27.08829,0.09 l 2.00159,0.2976 2.48589,6.2413 c 1.36725,3.4328 2.66258,6.6704 2.87848,7.1948 0.36647,0.8899 0.35847,0.9401 -0.11995,0.7535 -0.28194,-0.1102 -1.85145,-0.5036 -3.48785,-0.8746 -15.86942,-3.5983 -32.21503,-2.3045 -47.46256,3.7569 -1.85934,1.0442 -3.62692,-0.2081 -5.49457,-0.8551 z m -47.22624,-0.212 c 0.0818,-0.8523 0.22617,-3.4518 0.32073,-5.7764 0.0945,-2.3245 0.35122,-4.9873 0.57037,-5.9172 0.37988,-1.6117 3.44287,-8.1875 3.69591,-7.9345 0.3265,0.3265 0.59224,8.2927 0.35891,10.759 -0.33533,3.5445 -1.59931,6.2726 -4.50086,9.7144 l -0.59385,0.7046 z m 33.3533,-6.692 c 0.041,-2.1309 0.2106,-4.3701 0.37695,-4.9759 0.43552,-1.5861 1.47993,-3.155 3.4542,-5.1893 1.64837,-1.6984 5.00749,-4.5575 5.35451,-4.5575 0.47374,0 1.13048,3.4796 1.14345,6.0581 0.0228,4.5316 -0.68965,6.078 -3.93074,8.5314 -1.69634,1.2841 -6.01566,4.0073 -6.35674,4.0076 -0.0639,10e-5 -0.0826,-1.7434 -0.0416,-3.8744 z m -17.54143,-5.0829 c 0.0532,-5.1478 0.15754,-6.6457 0.53373,-7.6581 0.98509,-2.6516 2.93661,-5.4289 6.91485,-9.841 l 2.38621,-2.6464 0.26816,0.8149 c 0.14748,0.4483 0.27073,3.0973 0.27384,5.8868 0.006,4.3597 -0.081,5.3885 -0.61238,7.3261 -1.05822,3.8596 -1.79567,5.0401 -5.38699,8.6232 -4.87479,4.8638 -4.45599,5.1036 -4.37742,-2.5055 z m 9.06367,0.3091 c 0.37643,-1.0371 1.10962,-3.5733 1.6293,-5.6362 1.13109,-4.4897 1.82773,-5.7757 4.59672,-8.4848 1.90805,-1.8671 10.38719,-7.8588 10.69105,-7.5549 0.26916,0.2692 -0.80949,5.3274 -1.63513,7.6677 -1.51182,4.2853 -3.91605,8.5603 -5.79244,10.2995 -1.71612,1.5907 -8.82416,5.5942 -9.93223,5.5942 -0.13293,0 0.0663,-0.8485 0.44273,-1.8855 z"
       id="path1252"
       sodipodi:nodetypes="ssscssssssssssssssssssssssssssssscssssssssscsssscssssssscssssssssscscccsscssssssscccsscccsssssscsssssscccssscsssscssssscssssssssscsssssssssssssccssssscssssssssscssssssssssscscscsssssscsssssssssssssssccsscssscccsscscccsssscssscscsscssscscssccsssssscsssssssssssscsssssssssssss" />
  </g>
  <g
     inkscape:groupmode="layer"
     id="layer2"
     inkscape:label="text"
     style="display:inline"
     transform="translate(-338.52248,-1100.471)">
    <path
       style="display:inline;fill:#ff3399;fill-opacity:1"
       d="m 414.77497,1223.0184 v -20 h 13.42742 c 13.31478,0 13.44481,-0.022 15.5,-2.6349 2.58322,-3.284 2.63751,-6.445 0.16323,-9.5043 -1.80986,-2.2378 -2.61743,-2.3779 -15.5,-2.6883 l -13.59065,-0.3275 v -6.4929 -6.4929 l 15.41808,0.3204 c 15.3394,0.3188 15.44014,0.3359 19.74151,3.362 10.91474,7.6786 12.42322,22.1568 3.28371,31.5165 l -3.65881,3.7469 6.5388,14.6383 6.53881,14.6383 -7.55972,-0.2908 -7.55971,-0.2908 -5.62134,-12.7244 -5.62133,-12.7244 -3.75,-0.026 -3.75,-0.026 v 13 13 h -7 -7 v -20 z m 184.99996,7.5302 v -12.4697 l -12.5,-20.9817 c -6.875,-11.54 -12.5,-21.2286 -12.5,-21.5303 0,-0.3017 3.4875,-0.5422 7.75,-0.5345 l 7.75,0.014 7.8378,13.486 c 4.3107,7.4173 8.1357,13.4798 8.5,13.4722 0.3642,-0.01 4.2218,-6.0825 8.5725,-13.5 l 7.9102,-13.4862 h 7.875 c 7.8501,0 7.8712,0.01 6.6932,2.25 -0.65,1.2375 -6.2909,10.8644 -12.5352,21.3931 l -11.3535,19.1431 v 12.6069 12.6069 h -7 -7 z m 177.5,11.5523 c -9.0339,-2.4986 -16.0067,-8.3104 -19.6229,-16.3555 -2.2024,-4.8998 -2.3712,-6.6513 -2.6951,-27.977 l -0.3456,-22.75 h 7.0818 7.0818 v 21.2656 c 0,23.2043 0.5404,25.8089 6.2373,30.0622 6.3244,4.7218 16.7507,2.6441 20.997,-4.1843 2.1426,-3.4455 2.2831,-4.8254 2.5857,-25.3935 l 0.3199,-21.75 h 6.4301 6.43 v 22.3219 c 0,25.1608 -0.6357,28.556 -6.6664,35.6015 -1.9568,2.2861 -5.7557,5.2703 -8.4419,6.6315 -5.3103,2.691 -14.4797,3.8861 -19.3917,2.5276 z m 269.49997,-26.0825 v -27 h -11 -11 v -7 -7 h 29 29 v 6.5 6.5 h -11 -11 v 27.5 27.5 h -7 -7 z m 159,20 v -7 h 24 24 v 7 7 h -24 -24 z m 161.2768,4.2929 c 0.7549,-1.5361 7.8527,-16.6304 15.7727,-33.5429 7.92,-16.9125 14.6364,-30.7451 14.9253,-30.7392 0.2888,0.01 7.5787,15.0993 16.1994,33.5407 l 15.6741,33.5299 -7.6271,-0.2907 -7.6271,-0.2907 -8.047,-17.2089 c -4.4259,-9.4649 -8.2768,-17.2274 -8.5575,-17.25 -0.2808,-0.023 -4.1698,7.7214 -8.6424,17.2089 l -8.132,17.25 -7.6555,0.2929 -7.6555,0.293 z m 174.7232,-31.2929 v -34 l 6.75,0.02 6.75,0.02 8.8912,13.4797 c 4.8902,7.4138 9.1652,13.4705 9.5,13.4592 0.3349,-0.011 5.4993,-5.5699 9.6088,-13.4597 l 9,-13.4392 6.75,-0.04 6.75,-0.04 v 34 34 h -6.4805 -6.4805 l -0.2695,-21.75 -0.2695,-21.75 -9.3474,13.8691 -9.3473,13.869 -9.1527,-13.7726 -9.1526,-13.7726 -0.2695,21.6534 -0.2695,21.6537 h -6.4805 -6.4805 z m -336,0.026 v -7.026 h 15.5457 15.5457 l -0.2957,6.75 -0.2957,6.75 -15.25,0.276 -15.25,0.2761 z m 0,-27.526 v -6.5 h 24 24 v 6.5 6.5 h -24 -24 z"
       id="path1252-7"
       sodipodi:nodetypes="ccsssscccssscccccccccccccccccssscscscscsccccccssscccsssscccssssccccccccccccccccccccccccccsscscccssscccsccccssscccccccccccccccccccccccccccccccccccc" />
    <text
       xml:space="preserve"
       id="text841"
       style="font-style:normal;font-variant:normal;font-weight:normal;font-stretch:normal;font-size:85.3333px;line-height:1.25;font-family:Ubuntu;-inkscape-font-specification:Ubuntu;letter-spacing:55.92px;white-space:pre;shape-inside:url(#rect843);fill:#c3c3c3;fill-opacity:1;stroke:none;"
       transform="translate(3.6574938,3.847667)"><tspan
         x="1026.2188"
         y="1372.3597"><tspan
           style="shape-inside:url(#rect843)">d o j o</tspan></tspan></text>
  </g>
</svg>
