<svg xmlns="http://www.w3.org/2000/svg" width="324.362" height="321.696" viewBox="0 0 324.362 321.696">
  <g id="Group_1699" data-name="Group 1699" transform="translate(-0.031 -0.319)">
    <path id="Path_26558" data-name="Path 26558" d="M.031,273.813q18.379-5.226,36.753-10.474c.744-.214,1.013-.1,1.176.639a23.119,23.119,0,0,0,.808,2.8c.26.727.13,1.011-.672,1.234-6.551,1.828-13.085,3.717-19.627,5.581-5.434,1.549-10.874,3.075-16.3,4.651-.648.188-.867.071-1.048-.558a15.267,15.267,0,0,0-1.09-3.439v-.433" transform="translate(0 -71.772)" fill="#ea3323"/>
    <path id="Path_26559" data-name="Path 26559" d="M341.428,47.437a12.832,12.832,0,0,1,5.793-.258A13.488,13.488,0,0,1,356.535,66.7c-2.449,4.763-6.172,8.122-11.586,9.251a13.3,13.3,0,0,1-15.713-13.577,3.682,3.682,0,0,0-.025-.427c-.451-.073-.561.3-.748.52-3.663,4.228-7.329,8.453-10.956,12.712-.492.578-.767.632-1.307.089a19.474,19.474,0,0,0-2.3-1.971c-.651-.475-.536-.776-.062-1.322q13.4-15.468,26.741-30.98c.443-.515.71-.617,1.229-.115.8.776,1.663,1.5,2.537,2.195.423.337.4.556.058.936-.94,1.037-1.839,2.111-2.974,3.426m11.8,12.589a9.676,9.676,0,0,0-10.921-9.536c-4.99.833-8.1,3.994-9.481,8.685a9.568,9.568,0,0,0,9.962,12.187c5.278-.34,10.368-5.867,10.441-11.336M329.288,61.7l-.061-.077c-.025.025-.068.047-.07.073s.039.055.06.081l.071-.078" transform="translate(-85.555 -10.982)" fill="#ea3323"/>
    <path id="Path_26560" data-name="Path 26560" d="M369.34,107.032c-.4-.095-.658.211-.946.38-4.713,2.779-9.431,5.55-14.119,8.372-.735.443-1.125.519-1.527-.355a15.266,15.266,0,0,0-1.434-2.41c-.466-.657-.331-.957.348-1.356q12.848-7.553,25.661-15.163c3.16-1.87,6.333-3.719,9.467-5.632.7-.427,1-.325,1.347.37a22.761,22.761,0,0,0,1.485,2.507c.4.6.414.923-.305,1.295-1.2.618-2.328,1.367-3.648,2.156,6.182.641,9.9,4.058,11.717,9.586,1.753,5.326-.182,10.984-4.936,14.714-4.231,3.318-8.971,4.955-14.346,3.516-7.166-1.921-11.786-10.135-8.873-17.37.071-.177.249-.363.108-.61m12.3,13.6a12.61,12.61,0,0,0,9.292-4.518,9.677,9.677,0,0,0-4.969-15.663c-4.081-1.018-9.2.94-11.934,4.646a9.165,9.165,0,0,0-1.04,9.978,9.313,9.313,0,0,0,8.65,5.557" transform="translate(-95.817 -24.648)" fill="#ea3323"/>
    <path id="Path_26561" data-name="Path 26561" d="M182.043,415.859c-.2,1.5-.4,2.843-.542,4.195-.053.508-.187.687-.728.6-1.174-.191-2.356-.36-3.541-.451-.633-.048-.646-.293-.576-.82q1.207-9.061,2.369-18.129c.39-3,.8-6.007,1.147-9.015.079-.681.216-.939.981-.776a34.2,34.2,0,0,0,3.429.465c.478.051.571.219.5.691-.225,1.423-.386,2.855-.569,4.26.209.156.281,0,.363-.1,5.516-6.329,17.053-5.038,21.223,3.2,3.269,6.46,1.52,15.542-3.835,19.878-6.162,4.99-16.509,3.289-19.918-3.721-.028-.058-.1-.1-.3-.28m20.764-8.921c-.021-.332-.036-.909-.1-1.482a9.642,9.642,0,0,0-17.005-5.043,12.534,12.534,0,0,0-2.5,9.041,9.5,9.5,0,0,0,7.165,8.614,9.358,9.358,0,0,0,10.488-3.912,12.941,12.941,0,0,0,1.946-7.218" transform="translate(-48.207 -106.759)" fill="#ea3323"/>
    <path id="Path_26562" data-name="Path 26562" d="M43.186,292.855a12.566,12.566,0,0,1,12.1,3.567C59.9,301.11,61.108,307.8,58.4,313.136c-3.517,6.936-12.94,10.679-19.712,7.925-6.744-2.742-12.335-13.259-6.521-21.216a16.818,16.818,0,0,1,7.08-5.33c.712-.316.72.268.889.572q4.069,7.31,8.1,14.639c.783,1.418,1.581,2.827,2.349,4.252.215.4.345.63.845.271,3-2.153,4.628-5.035,4.05-8.727-.6-3.825-2.542-6.779-6.508-7.97a4.152,4.152,0,0,0-2.026-.207c-1.08.237-1.535-.273-1.946-1.133-.527-1.1-1.158-2.151-1.819-3.358m.113,24.552a10.352,10.352,0,0,0,3.4-.663c.66-.225.7-.449.372-1.041q-4.057-7.248-8.039-14.537c-.348-.638-.6-.646-1.167-.276a8.243,8.243,0,0,0-3.45,9.537,9.192,9.192,0,0,0,8.884,6.98" transform="translate(-8.109 -79.77)" fill="#ea3323"/>
    <path id="Path_26563" data-name="Path 26563" d="M264.572,414.37c-3.21,5.15-8.532,7.411-14.025,6.013-4.524-1.151-6.963-4.4-7.916-8.708-1.269-5.73-2.226-11.529-3.346-17.294-.123-.633.046-.812.651-.891a21.463,21.463,0,0,0,2.863-.55c.812-.221,1.117,0,1.268.828.915,5.033,1.875,10.058,2.823,15.084.06.318.135.634.21.949,1.491,6.18,6.411,7.72,11.472,5.716,3.494-1.384,5.209-4.955,4.462-9.127q-1.37-7.659-2.878-15.293c-.2-1.016-.14-1.621,1.083-1.636a10.445,10.445,0,0,0,1.6-.279c1.866-.321,1.865-.32,2.223,1.576q3.353,17.789,6.725,35.574c.156.816-.087,1.079-.843,1.178a22.807,22.807,0,0,0-2.974.546c-.713.193-.832-.057-.946-.684-.779-4.273-1.6-8.539-2.448-13" transform="translate(-65.3 -106.107)" fill="#ea3323"/>
    <path id="Path_26564" data-name="Path 26564" d="M396.242,169.31c0-8.2,6.729-14.3,15.773-14.309,8.173-.005,14.265,6.451,14.276,15.128.011,8.237-6.63,14.346-15.588,14.34-8.155-.006-14.46-6.615-14.461-15.159m14.229,10.252A13.579,13.579,0,0,0,417,177.933a8.935,8.935,0,0,0,5.014-8.764c-.24-4.1-2.1-7.254-6.13-8.7-3.1-1.113-6.189-.606-9.174.571-4.673,1.843-6.953,5.954-5.982,10.671a9.652,9.652,0,0,0,9.739,7.853" transform="translate(-108.156 -42.224)" fill="#ea3323"/>
    <path id="Path_26565" data-name="Path 26565" d="M33.968,122.782c7.119-.012,13.486,4.6,15.262,11.038,2.023,7.331-2.486,17.244-11.639,18.576-6.322.92-16.43-2.923-17.808-12.448C18.7,132.462,24,122.773,33.968,122.782M45.315,137.8a8.6,8.6,0,0,0-1.986-5.554,12.955,12.955,0,0,0-8.566-4.561,9.647,9.647,0,0,0-8.888,15.3,13.2,13.2,0,0,0,7.4,4.378c6.441,1.653,12-2.651,12.04-9.563" transform="translate(-5.354 -33.429)" fill="#ea3323"/>
    <path id="Path_26566" data-name="Path 26566" d="M134.839,401.6c-6.375,3.5-15.239-1.145-16.761-7.505a11.753,11.753,0,0,1,.92-7.9c2.465-5.28,5.037-10.51,7.533-15.776.274-.577.527-.515.979-.281.957.5,1.918,1,2.914,1.408.645.266.636.545.359,1.112q-3.363,6.884-6.665,13.8c-.973,2.037-1.719,4.133-1.2,6.457.721,3.214,2.991,4.891,5.914,5.854a7.122,7.122,0,0,0,7.434-1.576,12.232,12.232,0,0,0,2.709-3.875c2.161-4.469,4.34-8.929,6.457-13.42.348-.737.624-.872,1.325-.475.906.513,1.863.939,2.816,1.363.477.213.643.4.375.953q-6.035,12.426-12.016,24.877c-.249.519-.465.581-.957.321-1.146-.6-2.8-.864-3.356-1.795-.584-.977.968-2.161,1.218-3.545" transform="translate(-32.138 -100.905)" fill="#ea3323"/>
    <path id="Path_26567" data-name="Path 26567" d="M80.335,366.713c-7.705,1.229-13.972-5.836-13.845-11.737a11.148,11.148,0,0,1,3.032-7.448c4.044-4.419,8.214-8.723,12.314-13.091.4-.428.619-.275.942.047.715.713,1.423,1.442,2.2,2.083.638.525.678.854.065,1.488-3.565,3.682-7.079,7.413-10.605,11.132a10.437,10.437,0,0,0-2.792,4.675,6.81,6.81,0,0,0,.023,3.421,8.237,8.237,0,0,0,12.912,4.653,16.652,16.652,0,0,0,2.239-2.036c3.382-3.557,6.78-7.1,10.133-10.684.531-.567.816-.563,1.319-.015a23.087,23.087,0,0,0,2.2,2.087c.551.461.526.744.032,1.261q-7.413,7.742-14.778,15.53c-1.317,1.386-2.675,2.738-3.935,4.174-.558.636-.87.561-1.39,0a30.443,30.443,0,0,0-2.277-2.159c-.419-.367-.454-.62-.033-1.023.72-.691,1.384-1.442,2.249-2.356" transform="translate(-18.141 -91.134)" fill="#ea3323"/>
    <path id="Path_26568" data-name="Path 26568" d="M77.965,84.115c.983,5.065-.808,8.8-4.339,11.818a10.639,10.639,0,0,1-12.3,1.346A21.176,21.176,0,0,1,57.534,94.6q-5.807-4.871-11.64-9.712c-.518-.427-.566-.68-.1-1.165A18.178,18.178,0,0,0,47.6,81.563c.52-.749.87-.831,1.623-.185,3.865,3.31,7.786,6.556,11.7,9.808a9.114,9.114,0,0,0,6.046,2.537c3.328-.065,5.457-2.009,7.02-4.694a6.991,6.991,0,0,0-.148-7.584A13.923,13.923,0,0,0,70.7,78.037c-3.685-3.076-7.357-6.169-11.065-9.218-.632-.52-.782-.86-.148-1.487a17.377,17.377,0,0,0,1.807-2.154c.442-.607.726-.731,1.386-.174q10.388,8.76,20.847,17.438c.515.428.646.7.143,1.233a28.4,28.4,0,0,0-2.085,2.489c-.393.524-.671.467-1.1.073-.739-.67-1.524-1.291-2.516-2.122" transform="translate(-12.405 -17.56)" fill="#ea3323"/>
    <path id="Path_26569" data-name="Path 26569" d="M297.116,40.718c-5.581,2.476-11.51,1.177-15.084-3.383-2.706-3.452-2.89-7.327-1.368-11.255,2.092-5.4,4.389-10.717,6.574-16.08.236-.578.515-.535.979-.329.986.438,1.979.864,2.993,1.229.647.232.649.526.4,1.1q-2.956,7.01-5.847,14.045c-.894,2.165-1.5,4.382-.764,6.728.984,3.138,3.421,4.614,6.387,5.363a7.028,7.028,0,0,0,7.268-2.2,13.21,13.21,0,0,0,2.414-4.066c1.863-4.484,3.75-8.958,5.577-13.457.3-.729.55-.935,1.293-.564a31.4,31.4,0,0,0,2.984,1.249c.492.185.541.385.34.865q-5.326,12.743-10.6,25.507c-.215.521-.427.633-.94.4-1.047-.476-2.109-.924-3.184-1.332-.489-.185-.591-.394-.375-.876.412-.918.766-1.862,1.143-2.8.007-.089.055-.228.015-.26-.1-.081-.169.009-.206.111" transform="translate(-76.345 -2.515)" fill="#ea3323"/>
    <path id="Path_26570" data-name="Path 26570" d="M240.224.334c3.042.118,5.946.688,8.374,2.7a8.546,8.546,0,0,1,3.17,6.932c0,.509-.1.73-.662.6a6.078,6.078,0,0,0-1.186-.1c-1.716-.036-3.24-.136-3.394-2.5-.076-1.15-1.139-1.986-2.184-2.545a8.283,8.283,0,0,0-6.291-.7,3.568,3.568,0,0,0-2.777,2.736,3.531,3.531,0,0,0,1.532,3.77,18.469,18.469,0,0,0,4.124,2.1c1.685.724,3.4,1.383,5.044,2.2,3.565,1.77,5.026,4.244,4.7,7.733a7.739,7.739,0,0,1-6.063,6.569,14.23,14.23,0,0,1-12.791-2.464,8.361,8.361,0,0,1-3.365-6.511c-.03-.6.091-.837.771-.727,1.139.182,2.293.268,3.442.367.435.037.726.107.8.646.364,2.735,2.182,4.1,4.66,4.765a8.3,8.3,0,0,0,5.009-.014A3.909,3.909,0,0,0,245.9,23.1a3.064,3.064,0,0,0-1.461-3.629,25.422,25.422,0,0,0-4.785-2.231,44.1,44.1,0,0,1-4.351-1.893c-3.722-1.93-5.412-4.709-4.894-8.073.537-3.485,3.19-5.993,7.126-6.7a11.039,11.039,0,0,1,2.694-.241" transform="translate(-62.352 0)" fill="#ea3323"/>
    <path id="Path_26571" data-name="Path 26571" d="M296.876,387.925c-1.889-8.431,3.615-14.576,10.929-16.373,5.608-1.378,10.263.566,13.79,5.015,3.113,3.926,4.849,8.369,3.8,13.483-1.084,5.311-4.641,8.473-9.495,10.335-5.01,1.922-9.539,1.116-13.489-2.612-.561-.529-.645-.81.15-1.176,1.076-.5,2.11-1.089,3.139-1.681a.819.819,0,0,1,1.12.124c2.869,2.388,6.146,2.568,9.636.59a8.465,8.465,0,0,0,4.492-8.655,15.419,15.419,0,0,0-4.838-9.2c-4.819-4.451-13.162-2.02-14.688,4.228a8.686,8.686,0,0,0-.088,2.905c.032.336.084.6-.305.8-1.37.7-2.723,1.443-4.157,2.209" transform="translate(-80.929 -101.218)" fill="#ea3323"/>
    <path id="Path_26572" data-name="Path 26572" d="M401.636,255.976c2.756.151,5.363,1.051,8.024,1.669q5.314,1.233,10.6,2.6c.679.174.862-.008,1.014-.616.233-.928.089-2.276.852-2.653.648-.321,1.757.376,2.677.492.87.109,1.059.439.8,1.255-.268.848-.816,2-.478,2.537.351.559,1.615.555,2.485.776,1.187.3,2.369.635,3.571.856.669.123.843.361.659,1-.3,1.038-.579,2.085-.78,3.145-.119.626-.347.748-.947.589-1.74-.462-3.516-.8-5.237-1.316-.958-.289-1.227,0-1.41.885-.38,1.832-.894,3.637-1.292,5.466-.134.621-.339.762-.945.563a17.608,17.608,0,0,0-2.31-.551c-.634-.116-.811-.382-.637-1.027.507-1.877.939-3.774,1.433-5.655.164-.623.08-.934-.633-1.1-5.219-1.246-10.426-2.542-15.64-3.809-2.835-.689-3.975,0-4.757,2.845-.276,1.007-.541,2.018-.765,3.038-.091.417-.23.585-.643.39a.635.635,0,0,0-.1-.031c-1.073-.281-2.546-.241-3.105-.936-.536-.667.321-2,.543-3.049a15.4,15.4,0,0,1,1.227-3.789,5.84,5.84,0,0,1,5.8-3.573" transform="translate(-107.515 -69.786)" fill="#ea3323"/>
    <path id="Path_26573" data-name="Path 26573" d="M425.813,222.477a9.6,9.6,0,0,1,4.32,5.91,12.565,12.565,0,0,1,.343,2.892c0,.46-.041.736-.638.691-1.223-.094-2.452-.139-3.677-.134-.619,0-.7-.27-.675-.787a12.107,12.107,0,0,0-.237-3.658,6.541,6.541,0,0,0-5-4.858,30.96,30.96,0,0,0-6.667-.6c-3.783-.2-7.571-.34-11.358-.448-.726-.021-.91-.222-.843-.921a21.994,21.994,0,0,0,.081-2.92c-.031-.8.212-1.037,1.042-1,4.469.214,8.942.358,13.413.537,4.507.182,9.012.4,13.52.546.8.026,1.154.168,1.048,1.059-.144,1.213.277,2.834-.362,3.554-.653.736-2.3.108-3.508.133-.144,0-.287,0-.8,0" transform="translate(-109.554 -59.051)" fill="#ea3323"/>
    <path id="Path_26574" data-name="Path 26574" d="M97.251,42.263a10.376,10.376,0,0,1,4-8.662c.623-.524.989-.6,1.453.177a21.074,21.074,0,0,0,1.819,2.548c.475.579.336.855-.233,1.234a12.911,12.911,0,0,0-1.915,1.576,6.461,6.461,0,0,0-1.533,7.528,15.947,15.947,0,0,0,1.937,3.357c2.763,3.871,5.509,7.754,8.3,11.6.47.647.486.965-.23,1.392a29.174,29.174,0,0,0-2.558,1.808c-.395.3-.632.4-.992-.107Q99.294,53.435,91.236,42.19c-.292-.409-.33-.623.129-.926.991-.654,1.964-1.341,2.9-2.071.443-.345.639-.233.917.177.666.98,1.376,1.931,2.068,2.894" transform="translate(-24.837 -8.976)" fill="#ea3323"/>
    <path id="Path_26575" data-name="Path 26575" d="M183.935,16.027c.054.347-.259.344-.546.409q-9.688,2.17-19.371,4.361c-.417.095-.645.13-.743-.388-.208-1.094-.925-2.343-.6-3.214.321-.852,1.871-.7,2.886-.931,5.538-1.277,11.091-2.489,16.629-3.765.728-.168,1.012-.06,1.12.707.129.923.4,1.826.622,2.822" transform="translate(-44.376 -3.306)" fill="#ea3323"/>
    <path id="Path_26576" data-name="Path 26576" d="M18.234,217.692c1.926-.194,1.915-.193,2.042,1.732.4,6.05.8,12.1,1.233,18.146.057.8-.081,1.146-.965,1.138-1-.009-2.289.534-2.913-.027-.531-.478-.313-1.818-.377-2.779-.373-5.581-.71-11.164-1.115-16.743-.073-1.011.059-1.583,1.233-1.4a3.746,3.746,0,0,0,.862-.064" transform="translate(-4.393 -59.315)" fill="#ea3323"/>
    <path id="Path_26577" data-name="Path 26577" d="M393.95,326.85c-.089.124-.211.3-.337.467q-5.8,7.863-11.6,15.734c-.395.539-.641.622-1.159.18a24.434,24.434,0,0,0-2.169-1.605c-.4-.27-.4-.465-.116-.841q5.921-7.978,11.8-15.987c.306-.417.493-.49.912-.148.723.59,1.506,1.109,2.255,1.67.167.125.388.22.409.529" transform="translate(-103.278 -88.475)" fill="#ea3323"/>
    <path id="Path_26579" data-name="Path 26579" d="M335.187,69.608l-.071.078c-.021-.027-.061-.056-.06-.081s.045-.049.07-.073l.061.077" transform="translate(-91.454 -18.893)" fill="#ea3323"/>
    <path id="Path_26585" data-name="Path 26585" d="M303.652,52.374c.037-.1.107-.191.206-.111.04.032-.007.171-.015.26l-.192-.15" transform="translate(-82.881 -14.171)" fill="#ea3323"/>
  </g>
</svg>
