<svg id="tw" xmlns="http://www.w3.org/2000/svg" width="54" height="54" viewBox="0 0 54 54">
  <g id="Group_1765" data-name="Group 1765" transform="translate(0 0)">
    <path id="Path_1481" data-name="Path 1481" d="M27,0A27,27,0,1,1,0,27,27,27,0,0,1,27,0Z" transform="translate(0 0)" fill="red"/>
  </g>
  <g id="twitter" transform="translate(14.228 16.599)">
    <g id="Group_933" data-name="Group 933">
      <path id="Path_432" data-name="Path 432" d="M26.776,50.576a11.444,11.444,0,0,1-3.163.867,5.459,5.459,0,0,0,2.415-3.034,10.97,10.97,0,0,1-3.481,1.329,5.489,5.489,0,0,0-9.5,3.754,5.653,5.653,0,0,0,.127,1.252A15.538,15.538,0,0,1,1.864,49a5.491,5.491,0,0,0,1.687,7.337,5.421,5.421,0,0,1-2.48-.676v.06a5.515,5.515,0,0,0,4.4,5.394A5.479,5.479,0,0,1,4.03,61.3,4.854,4.854,0,0,1,2.991,61.2,5.542,5.542,0,0,0,8.12,65.026a11.03,11.03,0,0,1-6.806,2.341A10.28,10.28,0,0,1,0,67.292a15.454,15.454,0,0,0,8.421,2.463,15.516,15.516,0,0,0,15.624-15.62c0-.243-.008-.477-.02-.71A10.951,10.951,0,0,0,26.776,50.576Z" transform="translate(0 -48)" fill="#fff"/>
    </g>
  </g>
</svg>
