<svg id="tw" xmlns="http://www.w3.org/2000/svg" width="54" height="54" viewBox="0 0 54 54">
  <g id="Group_1765" data-name="Group 1765" transform="translate(0 0)">
    <path id="Path_1481" data-name="Path 1481" d="M27,0A27,27,0,1,1,0,27,27,27,0,0,1,27,0Z" transform="translate(0 0)" fill="red"/>
  </g>
  <path id="Icon_awesome-youtube" data-name="Icon awesome-youtube" d="M27.887,7.516a3.444,3.444,0,0,0-2.423-2.439C23.326,4.5,14.755,4.5,14.755,4.5s-8.571,0-10.709.576A3.444,3.444,0,0,0,1.623,7.516a36.13,36.13,0,0,0-.573,6.64,36.13,36.13,0,0,0,.573,6.64,3.393,3.393,0,0,0,2.423,2.4c2.138.576,10.709.576,10.709.576s8.571,0,10.709-.576a3.393,3.393,0,0,0,2.423-2.4,36.13,36.13,0,0,0,.573-6.64,36.13,36.13,0,0,0-.573-6.64ZM11.952,18.231V10.08l7.164,4.076-7.164,4.075Z" transform="translate(12.245 12.863)" fill="#fff"/>
</svg>
